%TF.GenerationSoftware,KiCad,Pcbnew,(5.1.6)-1*%
%TF.CreationDate,2020-11-16T00:09:50-08:00*%
%TF.ProjectId,Wireless-Keyboard,57697265-6c65-4737-932d-4b6579626f61,rev?*%
%TF.SameCoordinates,Original*%
%TF.FileFunction,Soldermask,Top*%
%TF.FilePolarity,Negative*%
%FSLAX46Y46*%
G04 Gerber Fmt 4.6, Leading zero omitted, Abs format (unit mm)*
G04 Created by KiCad (PCBNEW (5.1.6)-1) date 2020-11-16 00:09:50*
%MOMM*%
%LPD*%
G01*
G04 APERTURE LIST*
%ADD10C,3.910000*%
%ADD11C,1.878000*%
%ADD12C,4.087800*%
%ADD13C,1.850000*%
%ADD14C,3.148000*%
G04 APERTURE END LIST*
D10*
%TO.C,MS1*%
X43540000Y-101540000D03*
X61320000Y-101540000D03*
D11*
X62590000Y-115510000D03*
X62590000Y-118050000D03*
X62590000Y-120590000D03*
X62590000Y-123130000D03*
X62590000Y-125670000D03*
X62590000Y-128210000D03*
X62590000Y-130750000D03*
X62590000Y-133290000D03*
X62590000Y-135830000D03*
X62590000Y-138370000D03*
X62590000Y-140910000D03*
X62590000Y-143450000D03*
X42270000Y-143450000D03*
X42270000Y-140910000D03*
X42270000Y-138370000D03*
X42270000Y-135830000D03*
X42270000Y-133290000D03*
X42270000Y-130750000D03*
X42270000Y-128210000D03*
X42270000Y-125670000D03*
X42270000Y-123130000D03*
X42270000Y-120590000D03*
X42270000Y-118050000D03*
X42270000Y-115510000D03*
X42270000Y-112970000D03*
X42270000Y-110430000D03*
X42270000Y-107890000D03*
X42270000Y-105350000D03*
%TD*%
D12*
%TO.C,MX66*%
X171300000Y-186200000D03*
D13*
X166220000Y-186200000D03*
X176380000Y-186200000D03*
D14*
X121300100Y-193185000D03*
X221299900Y-193185000D03*
D12*
X121300100Y-177945000D03*
X221299900Y-177945000D03*
%TD*%
%TO.C,MX69*%
X290362500Y-186200000D03*
D13*
X285282500Y-186200000D03*
X295442500Y-186200000D03*
%TD*%
D12*
%TO.C,MX48*%
X61762500Y-167150000D03*
D13*
X56682500Y-167150000D03*
X66842500Y-167150000D03*
%TD*%
D12*
%TO.C,MX17*%
X54618750Y-129050000D03*
D13*
X49538750Y-129050000D03*
X59698750Y-129050000D03*
%TD*%
D12*
%TO.C,MX31*%
X49856250Y-148100000D03*
D13*
X44776250Y-148100000D03*
X54936250Y-148100000D03*
%TD*%
D12*
%TO.C,MX45*%
X304650000Y-148100000D03*
D13*
X299570000Y-148100000D03*
X309730000Y-148100000D03*
D14*
X292743750Y-141115000D03*
X316556250Y-141115000D03*
D12*
X292743750Y-156355000D03*
X316556250Y-156355000D03*
%TD*%
%TO.C,MX44*%
X292743750Y-148100000D03*
D13*
X287663750Y-148100000D03*
X297823750Y-148100000D03*
%TD*%
D12*
%TO.C,MX70*%
X314175000Y-186200000D03*
D13*
X309095000Y-186200000D03*
X319255000Y-186200000D03*
%TD*%
D12*
%TO.C,MX68*%
X266550000Y-186200000D03*
D13*
X261470000Y-186200000D03*
X271630000Y-186200000D03*
%TD*%
D12*
%TO.C,MX67*%
X242737500Y-186200000D03*
D13*
X237657500Y-186200000D03*
X247817500Y-186200000D03*
%TD*%
D12*
%TO.C,MX65*%
X99862500Y-186200000D03*
D13*
X94782500Y-186200000D03*
X104942500Y-186200000D03*
%TD*%
D12*
%TO.C,MX64*%
X76050000Y-186200000D03*
D13*
X70970000Y-186200000D03*
X81130000Y-186200000D03*
%TD*%
D12*
%TO.C,MX63*%
X52237500Y-186200000D03*
D13*
X47157500Y-186200000D03*
X57317500Y-186200000D03*
%TD*%
D12*
%TO.C,MX62*%
X316556250Y-167150000D03*
D13*
X311476250Y-167150000D03*
X321636250Y-167150000D03*
%TD*%
D12*
%TO.C,MX61*%
X290362500Y-167150000D03*
D13*
X285282500Y-167150000D03*
X295442500Y-167150000D03*
%TD*%
D12*
%TO.C,MX60*%
X299887500Y-167150000D03*
D13*
X294807500Y-167150000D03*
X304967500Y-167150000D03*
D14*
X287981250Y-160165000D03*
X311793750Y-160165000D03*
D12*
X287981250Y-175405000D03*
X311793750Y-175405000D03*
%TD*%
%TO.C,MX59*%
X264168750Y-167150000D03*
D13*
X259088750Y-167150000D03*
X269248750Y-167150000D03*
%TD*%
D12*
%TO.C,MX58*%
X245118750Y-167150000D03*
D13*
X240038750Y-167150000D03*
X250198750Y-167150000D03*
%TD*%
D12*
%TO.C,MX57*%
X226068750Y-167150000D03*
D13*
X220988750Y-167150000D03*
X231148750Y-167150000D03*
%TD*%
D12*
%TO.C,MX56*%
X207018750Y-167150000D03*
D13*
X201938750Y-167150000D03*
X212098750Y-167150000D03*
%TD*%
D12*
%TO.C,MX55*%
X187968750Y-167150000D03*
D13*
X182888750Y-167150000D03*
X193048750Y-167150000D03*
%TD*%
D12*
%TO.C,MX54*%
X168918750Y-167150000D03*
D13*
X163838750Y-167150000D03*
X173998750Y-167150000D03*
%TD*%
D12*
%TO.C,MX53*%
X149868750Y-167150000D03*
D13*
X144788750Y-167150000D03*
X154948750Y-167150000D03*
%TD*%
D12*
%TO.C,MX52*%
X130818750Y-167150000D03*
D13*
X125738750Y-167150000D03*
X135898750Y-167150000D03*
%TD*%
D12*
%TO.C,MX51*%
X111768750Y-167150000D03*
D13*
X106688750Y-167150000D03*
X116848750Y-167150000D03*
%TD*%
D12*
%TO.C,MX50*%
X92718750Y-167150000D03*
D13*
X87638750Y-167150000D03*
X97798750Y-167150000D03*
%TD*%
D12*
%TO.C,MX49*%
X73668750Y-167150000D03*
D13*
X68588750Y-167150000D03*
X78748750Y-167150000D03*
%TD*%
D12*
%TO.C,MX47*%
X52237500Y-167150000D03*
D13*
X47157500Y-167150000D03*
X57317500Y-167150000D03*
%TD*%
D12*
%TO.C,MX46*%
X305920000Y-126637000D03*
X305920000Y-150513000D03*
D14*
X321160000Y-126637000D03*
X321160000Y-150513000D03*
D13*
X314175000Y-143655000D03*
X314175000Y-133495000D03*
D12*
X314175000Y-138575000D03*
%TD*%
%TO.C,MX43*%
X273693750Y-148100000D03*
D13*
X268613750Y-148100000D03*
X278773750Y-148100000D03*
%TD*%
D12*
%TO.C,MX42*%
X254643750Y-148100000D03*
D13*
X249563750Y-148100000D03*
X259723750Y-148100000D03*
%TD*%
D12*
%TO.C,MX41*%
X235593750Y-148100000D03*
D13*
X230513750Y-148100000D03*
X240673750Y-148100000D03*
%TD*%
D12*
%TO.C,MX40*%
X216543750Y-148100000D03*
D13*
X211463750Y-148100000D03*
X221623750Y-148100000D03*
%TD*%
D12*
%TO.C,MX39*%
X197493750Y-148100000D03*
D13*
X192413750Y-148100000D03*
X202573750Y-148100000D03*
%TD*%
D12*
%TO.C,MX38*%
X178443750Y-148100000D03*
D13*
X173363750Y-148100000D03*
X183523750Y-148100000D03*
%TD*%
D12*
%TO.C,MX37*%
X159393750Y-148100000D03*
D13*
X154313750Y-148100000D03*
X164473750Y-148100000D03*
%TD*%
D12*
%TO.C,MX36*%
X140343750Y-148100000D03*
D13*
X135263750Y-148100000D03*
X145423750Y-148100000D03*
%TD*%
D12*
%TO.C,MX35*%
X121293750Y-148100000D03*
D13*
X116213750Y-148100000D03*
X126373750Y-148100000D03*
%TD*%
D12*
%TO.C,MX34*%
X102243750Y-148100000D03*
D13*
X97163750Y-148100000D03*
X107323750Y-148100000D03*
%TD*%
D12*
%TO.C,MX33*%
X83193750Y-148100000D03*
D13*
X78113750Y-148100000D03*
X88273750Y-148100000D03*
%TD*%
D12*
%TO.C,MX32*%
X57000000Y-148100000D03*
D13*
X51920000Y-148100000D03*
X62080000Y-148100000D03*
%TD*%
D12*
%TO.C,MX30*%
X311793750Y-129050000D03*
D13*
X306713750Y-129050000D03*
X316873750Y-129050000D03*
%TD*%
D12*
%TO.C,MX29*%
X287981250Y-129050000D03*
D13*
X282901250Y-129050000D03*
X293061250Y-129050000D03*
%TD*%
D12*
%TO.C,MX28*%
X268931250Y-129050000D03*
D13*
X263851250Y-129050000D03*
X274011250Y-129050000D03*
%TD*%
D12*
%TO.C,MX27*%
X249881250Y-129050000D03*
D13*
X244801250Y-129050000D03*
X254961250Y-129050000D03*
%TD*%
D12*
%TO.C,MX26*%
X230831250Y-129050000D03*
D13*
X225751250Y-129050000D03*
X235911250Y-129050000D03*
%TD*%
D12*
%TO.C,MX25*%
X211781250Y-129050000D03*
D13*
X206701250Y-129050000D03*
X216861250Y-129050000D03*
%TD*%
D12*
%TO.C,MX24*%
X192731250Y-129050000D03*
D13*
X187651250Y-129050000D03*
X197811250Y-129050000D03*
%TD*%
D12*
%TO.C,MX23*%
X173681250Y-129050000D03*
D13*
X168601250Y-129050000D03*
X178761250Y-129050000D03*
%TD*%
D12*
%TO.C,MX22*%
X154631250Y-129050000D03*
D13*
X149551250Y-129050000D03*
X159711250Y-129050000D03*
%TD*%
D12*
%TO.C,MX21*%
X135581250Y-129050000D03*
D13*
X130501250Y-129050000D03*
X140661250Y-129050000D03*
%TD*%
D12*
%TO.C,MX20*%
X116531250Y-129050000D03*
D13*
X111451250Y-129050000D03*
X121611250Y-129050000D03*
%TD*%
D12*
%TO.C,MX19*%
X97481250Y-129050000D03*
D13*
X92401250Y-129050000D03*
X102561250Y-129050000D03*
%TD*%
D12*
%TO.C,MX18*%
X78431250Y-129050000D03*
D13*
X73351250Y-129050000D03*
X83511250Y-129050000D03*
%TD*%
D12*
%TO.C,MX16*%
X316556250Y-110000000D03*
D13*
X311476250Y-110000000D03*
X321636250Y-110000000D03*
%TD*%
D12*
%TO.C,MX15*%
X297506250Y-110000000D03*
D13*
X292426250Y-110000000D03*
X302586250Y-110000000D03*
%TD*%
D12*
%TO.C,MX14*%
X307031250Y-110000000D03*
D13*
X301951250Y-110000000D03*
X312111250Y-110000000D03*
D14*
X295125000Y-103015000D03*
X318937500Y-103015000D03*
D12*
X295125000Y-118255000D03*
X318937500Y-118255000D03*
%TD*%
%TO.C,MX13*%
X278456250Y-110000000D03*
D13*
X273376250Y-110000000D03*
X283536250Y-110000000D03*
%TD*%
D12*
%TO.C,MX12*%
X259406250Y-110000000D03*
D13*
X254326250Y-110000000D03*
X264486250Y-110000000D03*
%TD*%
D12*
%TO.C,MX11*%
X240356250Y-110000000D03*
D13*
X235276250Y-110000000D03*
X245436250Y-110000000D03*
%TD*%
D12*
%TO.C,MX10*%
X221306250Y-110000000D03*
D13*
X216226250Y-110000000D03*
X226386250Y-110000000D03*
%TD*%
D12*
%TO.C,MX9*%
X202256250Y-110000000D03*
D13*
X197176250Y-110000000D03*
X207336250Y-110000000D03*
%TD*%
D12*
%TO.C,MX8*%
X183206250Y-110000000D03*
D13*
X178126250Y-110000000D03*
X188286250Y-110000000D03*
%TD*%
D12*
%TO.C,MX7*%
X164156250Y-110000000D03*
D13*
X159076250Y-110000000D03*
X169236250Y-110000000D03*
%TD*%
D12*
%TO.C,MX6*%
X145106250Y-110000000D03*
D13*
X140026250Y-110000000D03*
X150186250Y-110000000D03*
%TD*%
D12*
%TO.C,MX5*%
X126056250Y-110000000D03*
D13*
X120976250Y-110000000D03*
X131136250Y-110000000D03*
%TD*%
D12*
%TO.C,MX4*%
X107006250Y-110000000D03*
D13*
X101926250Y-110000000D03*
X112086250Y-110000000D03*
%TD*%
D12*
%TO.C,MX3*%
X87956250Y-110000000D03*
D13*
X82876250Y-110000000D03*
X93036250Y-110000000D03*
%TD*%
D12*
%TO.C,MX2*%
X68906250Y-110000000D03*
D13*
X63826250Y-110000000D03*
X73986250Y-110000000D03*
%TD*%
D12*
%TO.C,MX1*%
X49856250Y-110000000D03*
D13*
X44776250Y-110000000D03*
X54936250Y-110000000D03*
%TD*%
M02*
