%TF.GenerationSoftware,KiCad,Pcbnew,(5.1.6)-1*%
%TF.CreationDate,2020-11-16T00:09:50-08:00*%
%TF.ProjectId,Wireless-Keyboard,57697265-6c65-4737-932d-4b6579626f61,rev?*%
%TF.SameCoordinates,Original*%
%TF.FileFunction,Legend,Bot*%
%TF.FilePolarity,Positive*%
%FSLAX46Y46*%
G04 Gerber Fmt 4.6, Leading zero omitted, Abs format (unit mm)*
G04 Created by KiCad (PCBNEW (5.1.6)-1) date 2020-11-16 00:09:50*
%MOMM*%
%LPD*%
G01*
G04 APERTURE LIST*
%ADD10C,0.150000*%
%ADD11C,0.120000*%
G04 APERTURE END LIST*
D10*
%TO.C,SW1*%
X79000000Y-104000000D02*
G75*
G03*
X79000000Y-104000000I-1000000J0D01*
G01*
X80600000Y-106600000D02*
X80600000Y-101400000D01*
X75400000Y-106600000D02*
X80600000Y-106600000D01*
X75400000Y-101400000D02*
X75400000Y-106600000D01*
X80600000Y-101400000D02*
X75400000Y-101400000D01*
D11*
%TO.C,D65*%
X319000000Y-196250000D02*
X319000000Y-192350000D01*
X317000000Y-196250000D02*
X317000000Y-192350000D01*
X319000000Y-196250000D02*
X317000000Y-196250000D01*
%TO.C,D64*%
X296000000Y-196250000D02*
X296000000Y-192350000D01*
X294000000Y-196250000D02*
X294000000Y-192350000D01*
X296000000Y-196250000D02*
X294000000Y-196250000D01*
%TO.C,D63*%
X272000000Y-196250000D02*
X272000000Y-192350000D01*
X270000000Y-196250000D02*
X270000000Y-192350000D01*
X272000000Y-196250000D02*
X270000000Y-196250000D01*
%TO.C,D62*%
X248000000Y-196250000D02*
X248000000Y-192350000D01*
X246000000Y-196250000D02*
X246000000Y-192350000D01*
X248000000Y-196250000D02*
X246000000Y-196250000D01*
%TO.C,D61*%
X176062500Y-196250000D02*
X176062500Y-192350000D01*
X174062500Y-196250000D02*
X174062500Y-192350000D01*
X176062500Y-196250000D02*
X174062500Y-196250000D01*
%TO.C,D60*%
X104625000Y-196250000D02*
X104625000Y-192350000D01*
X102625000Y-196250000D02*
X102625000Y-192350000D01*
X104625000Y-196250000D02*
X102625000Y-196250000D01*
%TO.C,D59*%
X80812500Y-196250000D02*
X80812500Y-192350000D01*
X78812500Y-196250000D02*
X78812500Y-192350000D01*
X80812500Y-196250000D02*
X78812500Y-196250000D01*
%TO.C,D58*%
X57000000Y-196250000D02*
X57000000Y-192350000D01*
X55000000Y-196250000D02*
X55000000Y-192350000D01*
X57000000Y-196250000D02*
X55000000Y-196250000D01*
%TO.C,D57*%
X308000000Y-176250000D02*
X308000000Y-172350000D01*
X306000000Y-176250000D02*
X306000000Y-172350000D01*
X308000000Y-176250000D02*
X306000000Y-176250000D01*
%TO.C,D56*%
X304000000Y-176250000D02*
X304000000Y-172350000D01*
X302000000Y-176250000D02*
X302000000Y-172350000D01*
X304000000Y-176250000D02*
X302000000Y-176250000D01*
%TO.C,D55*%
X268500000Y-176250000D02*
X268500000Y-172350000D01*
X266500000Y-176250000D02*
X266500000Y-172350000D01*
X268500000Y-176250000D02*
X266500000Y-176250000D01*
%TO.C,D54*%
X249450000Y-176250000D02*
X249450000Y-172350000D01*
X247450000Y-176250000D02*
X247450000Y-172350000D01*
X249450000Y-176250000D02*
X247450000Y-176250000D01*
%TO.C,D53*%
X230400000Y-176250000D02*
X230400000Y-172350000D01*
X228400000Y-176250000D02*
X228400000Y-172350000D01*
X230400000Y-176250000D02*
X228400000Y-176250000D01*
%TO.C,D52*%
X211350000Y-176250000D02*
X211350000Y-172350000D01*
X209350000Y-176250000D02*
X209350000Y-172350000D01*
X211350000Y-176250000D02*
X209350000Y-176250000D01*
%TO.C,D51*%
X192300000Y-176250000D02*
X192300000Y-172350000D01*
X190300000Y-176250000D02*
X190300000Y-172350000D01*
X192300000Y-176250000D02*
X190300000Y-176250000D01*
%TO.C,D50*%
X173250000Y-176250000D02*
X173250000Y-172350000D01*
X171250000Y-176250000D02*
X171250000Y-172350000D01*
X173250000Y-176250000D02*
X171250000Y-176250000D01*
%TO.C,D49*%
X154200000Y-176250000D02*
X154200000Y-172350000D01*
X152200000Y-176250000D02*
X152200000Y-172350000D01*
X154200000Y-176250000D02*
X152200000Y-176250000D01*
%TO.C,D48*%
X135150000Y-176250000D02*
X135150000Y-172350000D01*
X133150000Y-176250000D02*
X133150000Y-172350000D01*
X135150000Y-176250000D02*
X133150000Y-176250000D01*
%TO.C,D47*%
X116100000Y-176250000D02*
X116100000Y-172350000D01*
X114100000Y-176250000D02*
X114100000Y-172350000D01*
X116100000Y-176250000D02*
X114100000Y-176250000D01*
%TO.C,D46*%
X97050000Y-176250000D02*
X97050000Y-172350000D01*
X95050000Y-176250000D02*
X95050000Y-172350000D01*
X97050000Y-176250000D02*
X95050000Y-176250000D01*
%TO.C,D45*%
X78000000Y-176250000D02*
X78000000Y-172350000D01*
X76000000Y-176250000D02*
X76000000Y-172350000D01*
X78000000Y-176250000D02*
X76000000Y-176250000D01*
%TO.C,D44*%
X66000000Y-176250000D02*
X66000000Y-172350000D01*
X64000000Y-176250000D02*
X64000000Y-172350000D01*
X66000000Y-176250000D02*
X64000000Y-176250000D01*
%TO.C,D43*%
X303000000Y-156250000D02*
X303000000Y-152350000D01*
X301000000Y-156250000D02*
X301000000Y-152350000D01*
X303000000Y-156250000D02*
X301000000Y-156250000D01*
%TO.C,D42*%
X299000000Y-156250000D02*
X299000000Y-152350000D01*
X297000000Y-156250000D02*
X297000000Y-152350000D01*
X299000000Y-156250000D02*
X297000000Y-156250000D01*
%TO.C,D41*%
X277500000Y-156250000D02*
X277500000Y-152350000D01*
X275500000Y-156250000D02*
X275500000Y-152350000D01*
X277500000Y-156250000D02*
X275500000Y-156250000D01*
%TO.C,D40*%
X258450000Y-156250000D02*
X258450000Y-152350000D01*
X256450000Y-156250000D02*
X256450000Y-152350000D01*
X258450000Y-156250000D02*
X256450000Y-156250000D01*
%TO.C,D39*%
X239400000Y-156250000D02*
X239400000Y-152350000D01*
X237400000Y-156250000D02*
X237400000Y-152350000D01*
X239400000Y-156250000D02*
X237400000Y-156250000D01*
%TO.C,D38*%
X220350000Y-156250000D02*
X220350000Y-152350000D01*
X218350000Y-156250000D02*
X218350000Y-152350000D01*
X220350000Y-156250000D02*
X218350000Y-156250000D01*
%TO.C,D37*%
X201300000Y-156250000D02*
X201300000Y-152350000D01*
X199300000Y-156250000D02*
X199300000Y-152350000D01*
X201300000Y-156250000D02*
X199300000Y-156250000D01*
%TO.C,D36*%
X182250000Y-156250000D02*
X182250000Y-152350000D01*
X180250000Y-156250000D02*
X180250000Y-152350000D01*
X182250000Y-156250000D02*
X180250000Y-156250000D01*
%TO.C,D35*%
X163200000Y-156250000D02*
X163200000Y-152350000D01*
X161200000Y-156250000D02*
X161200000Y-152350000D01*
X163200000Y-156250000D02*
X161200000Y-156250000D01*
%TO.C,D34*%
X144150000Y-156250000D02*
X144150000Y-152350000D01*
X142150000Y-156250000D02*
X142150000Y-152350000D01*
X144150000Y-156250000D02*
X142150000Y-156250000D01*
%TO.C,D33*%
X125100000Y-156250000D02*
X125100000Y-152350000D01*
X123100000Y-156250000D02*
X123100000Y-152350000D01*
X125100000Y-156250000D02*
X123100000Y-156250000D01*
%TO.C,D32*%
X106050000Y-156250000D02*
X106050000Y-152350000D01*
X104050000Y-156250000D02*
X104050000Y-152350000D01*
X106050000Y-156250000D02*
X104050000Y-156250000D01*
%TO.C,D31*%
X87000000Y-156250000D02*
X87000000Y-152350000D01*
X85000000Y-156250000D02*
X85000000Y-152350000D01*
X87000000Y-156250000D02*
X85000000Y-156250000D01*
%TO.C,D30*%
X61000000Y-156250000D02*
X61000000Y-152350000D01*
X59000000Y-156250000D02*
X59000000Y-152350000D01*
X61000000Y-156250000D02*
X59000000Y-156250000D01*
%TO.C,D29*%
X302000000Y-137300000D02*
X302000000Y-133400000D01*
X300000000Y-137300000D02*
X300000000Y-133400000D01*
X302000000Y-137300000D02*
X300000000Y-137300000D01*
%TO.C,D28*%
X292550000Y-137300000D02*
X292550000Y-133400000D01*
X290550000Y-137300000D02*
X290550000Y-133400000D01*
X292550000Y-137300000D02*
X290550000Y-137300000D01*
%TO.C,D27*%
X273500000Y-137300000D02*
X273500000Y-133400000D01*
X271500000Y-137300000D02*
X271500000Y-133400000D01*
X273500000Y-137300000D02*
X271500000Y-137300000D01*
%TO.C,D26*%
X254450000Y-137300000D02*
X254450000Y-133400000D01*
X252450000Y-137300000D02*
X252450000Y-133400000D01*
X254450000Y-137300000D02*
X252450000Y-137300000D01*
%TO.C,D25*%
X235400000Y-137300000D02*
X235400000Y-133400000D01*
X233400000Y-137300000D02*
X233400000Y-133400000D01*
X235400000Y-137300000D02*
X233400000Y-137300000D01*
%TO.C,D24*%
X216350000Y-137300000D02*
X216350000Y-133400000D01*
X214350000Y-137300000D02*
X214350000Y-133400000D01*
X216350000Y-137300000D02*
X214350000Y-137300000D01*
%TO.C,D23*%
X197300000Y-137300000D02*
X197300000Y-133400000D01*
X195300000Y-137300000D02*
X195300000Y-133400000D01*
X197300000Y-137300000D02*
X195300000Y-137300000D01*
%TO.C,D22*%
X178250000Y-137300000D02*
X178250000Y-133400000D01*
X176250000Y-137300000D02*
X176250000Y-133400000D01*
X178250000Y-137300000D02*
X176250000Y-137300000D01*
%TO.C,D21*%
X159200000Y-137300000D02*
X159200000Y-133400000D01*
X157200000Y-137300000D02*
X157200000Y-133400000D01*
X159200000Y-137300000D02*
X157200000Y-137300000D01*
%TO.C,D20*%
X140150000Y-137300000D02*
X140150000Y-133400000D01*
X138150000Y-137300000D02*
X138150000Y-133400000D01*
X140150000Y-137300000D02*
X138150000Y-137300000D01*
%TO.C,D19*%
X121100000Y-137300000D02*
X121100000Y-133400000D01*
X119100000Y-137300000D02*
X119100000Y-133400000D01*
X121100000Y-137300000D02*
X119100000Y-137300000D01*
%TO.C,D18*%
X102050000Y-137300000D02*
X102050000Y-133400000D01*
X100050000Y-137300000D02*
X100050000Y-133400000D01*
X102050000Y-137300000D02*
X100050000Y-137300000D01*
%TO.C,D17*%
X83000000Y-137300000D02*
X83000000Y-133400000D01*
X81000000Y-137300000D02*
X81000000Y-133400000D01*
X83000000Y-137300000D02*
X81000000Y-137300000D01*
%TO.C,D16*%
X59000000Y-137300000D02*
X59000000Y-133400000D01*
X57000000Y-137300000D02*
X57000000Y-133400000D01*
X59000000Y-137300000D02*
X57000000Y-137300000D01*
%TO.C,D15*%
X314000000Y-118250000D02*
X314000000Y-114350000D01*
X312000000Y-118250000D02*
X312000000Y-114350000D01*
X314000000Y-118250000D02*
X312000000Y-118250000D01*
%TO.C,D14*%
X301650000Y-118250000D02*
X301650000Y-114350000D01*
X299650000Y-118250000D02*
X299650000Y-114350000D01*
X301650000Y-118250000D02*
X299650000Y-118250000D01*
%TO.C,D13*%
X282600000Y-118250000D02*
X282600000Y-114350000D01*
X280600000Y-118250000D02*
X280600000Y-114350000D01*
X282600000Y-118250000D02*
X280600000Y-118250000D01*
%TO.C,D12*%
X263550000Y-118250000D02*
X263550000Y-114350000D01*
X261550000Y-118250000D02*
X261550000Y-114350000D01*
X263550000Y-118250000D02*
X261550000Y-118250000D01*
%TO.C,D11*%
X244500000Y-118250000D02*
X244500000Y-114350000D01*
X242500000Y-118250000D02*
X242500000Y-114350000D01*
X244500000Y-118250000D02*
X242500000Y-118250000D01*
%TO.C,D10*%
X225450000Y-118250000D02*
X225450000Y-114350000D01*
X223450000Y-118250000D02*
X223450000Y-114350000D01*
X225450000Y-118250000D02*
X223450000Y-118250000D01*
%TO.C,D9*%
X206400000Y-118250000D02*
X206400000Y-114350000D01*
X204400000Y-118250000D02*
X204400000Y-114350000D01*
X206400000Y-118250000D02*
X204400000Y-118250000D01*
%TO.C,D8*%
X187350000Y-118250000D02*
X187350000Y-114350000D01*
X185350000Y-118250000D02*
X185350000Y-114350000D01*
X187350000Y-118250000D02*
X185350000Y-118250000D01*
%TO.C,D7*%
X168300000Y-118250000D02*
X168300000Y-114350000D01*
X166300000Y-118250000D02*
X166300000Y-114350000D01*
X168300000Y-118250000D02*
X166300000Y-118250000D01*
%TO.C,D6*%
X149250000Y-118250000D02*
X149250000Y-114350000D01*
X147250000Y-118250000D02*
X147250000Y-114350000D01*
X149250000Y-118250000D02*
X147250000Y-118250000D01*
%TO.C,D5*%
X130200000Y-118250000D02*
X130200000Y-114350000D01*
X128200000Y-118250000D02*
X128200000Y-114350000D01*
X130200000Y-118250000D02*
X128200000Y-118250000D01*
%TO.C,D4*%
X111150000Y-118250000D02*
X111150000Y-114350000D01*
X109150000Y-118250000D02*
X109150000Y-114350000D01*
X111150000Y-118250000D02*
X109150000Y-118250000D01*
%TO.C,D3*%
X92100000Y-118250000D02*
X92100000Y-114350000D01*
X90100000Y-118250000D02*
X90100000Y-114350000D01*
X92100000Y-118250000D02*
X90100000Y-118250000D01*
%TO.C,D2*%
X73050000Y-118250000D02*
X73050000Y-114350000D01*
X71050000Y-118250000D02*
X71050000Y-114350000D01*
X73050000Y-118250000D02*
X71050000Y-118250000D01*
%TO.C,D1*%
X54000000Y-118250000D02*
X54000000Y-114350000D01*
X52000000Y-118250000D02*
X52000000Y-114350000D01*
X54000000Y-118250000D02*
X52000000Y-118250000D01*
%TO.C,SW1*%
D10*
X79333333Y-108468761D02*
X79190476Y-108516380D01*
X78952380Y-108516380D01*
X78857142Y-108468761D01*
X78809523Y-108421142D01*
X78761904Y-108325904D01*
X78761904Y-108230666D01*
X78809523Y-108135428D01*
X78857142Y-108087809D01*
X78952380Y-108040190D01*
X79142857Y-107992571D01*
X79238095Y-107944952D01*
X79285714Y-107897333D01*
X79333333Y-107802095D01*
X79333333Y-107706857D01*
X79285714Y-107611619D01*
X79238095Y-107564000D01*
X79142857Y-107516380D01*
X78904761Y-107516380D01*
X78761904Y-107564000D01*
X78428571Y-107516380D02*
X78190476Y-108516380D01*
X78000000Y-107802095D01*
X77809523Y-108516380D01*
X77571428Y-107516380D01*
X76666666Y-108516380D02*
X77238095Y-108516380D01*
X76952380Y-108516380D02*
X76952380Y-107516380D01*
X77047619Y-107659238D01*
X77142857Y-107754476D01*
X77238095Y-107802095D01*
%TO.C,D65*%
X320452380Y-192785714D02*
X319452380Y-192785714D01*
X319452380Y-193023809D01*
X319500000Y-193166666D01*
X319595238Y-193261904D01*
X319690476Y-193309523D01*
X319880952Y-193357142D01*
X320023809Y-193357142D01*
X320214285Y-193309523D01*
X320309523Y-193261904D01*
X320404761Y-193166666D01*
X320452380Y-193023809D01*
X320452380Y-192785714D01*
X319452380Y-194214285D02*
X319452380Y-194023809D01*
X319500000Y-193928571D01*
X319547619Y-193880952D01*
X319690476Y-193785714D01*
X319880952Y-193738095D01*
X320261904Y-193738095D01*
X320357142Y-193785714D01*
X320404761Y-193833333D01*
X320452380Y-193928571D01*
X320452380Y-194119047D01*
X320404761Y-194214285D01*
X320357142Y-194261904D01*
X320261904Y-194309523D01*
X320023809Y-194309523D01*
X319928571Y-194261904D01*
X319880952Y-194214285D01*
X319833333Y-194119047D01*
X319833333Y-193928571D01*
X319880952Y-193833333D01*
X319928571Y-193785714D01*
X320023809Y-193738095D01*
X319452380Y-195214285D02*
X319452380Y-194738095D01*
X319928571Y-194690476D01*
X319880952Y-194738095D01*
X319833333Y-194833333D01*
X319833333Y-195071428D01*
X319880952Y-195166666D01*
X319928571Y-195214285D01*
X320023809Y-195261904D01*
X320261904Y-195261904D01*
X320357142Y-195214285D01*
X320404761Y-195166666D01*
X320452380Y-195071428D01*
X320452380Y-194833333D01*
X320404761Y-194738095D01*
X320357142Y-194690476D01*
%TO.C,D64*%
X297452380Y-192785714D02*
X296452380Y-192785714D01*
X296452380Y-193023809D01*
X296500000Y-193166666D01*
X296595238Y-193261904D01*
X296690476Y-193309523D01*
X296880952Y-193357142D01*
X297023809Y-193357142D01*
X297214285Y-193309523D01*
X297309523Y-193261904D01*
X297404761Y-193166666D01*
X297452380Y-193023809D01*
X297452380Y-192785714D01*
X296452380Y-194214285D02*
X296452380Y-194023809D01*
X296500000Y-193928571D01*
X296547619Y-193880952D01*
X296690476Y-193785714D01*
X296880952Y-193738095D01*
X297261904Y-193738095D01*
X297357142Y-193785714D01*
X297404761Y-193833333D01*
X297452380Y-193928571D01*
X297452380Y-194119047D01*
X297404761Y-194214285D01*
X297357142Y-194261904D01*
X297261904Y-194309523D01*
X297023809Y-194309523D01*
X296928571Y-194261904D01*
X296880952Y-194214285D01*
X296833333Y-194119047D01*
X296833333Y-193928571D01*
X296880952Y-193833333D01*
X296928571Y-193785714D01*
X297023809Y-193738095D01*
X296785714Y-195166666D02*
X297452380Y-195166666D01*
X296404761Y-194928571D02*
X297119047Y-194690476D01*
X297119047Y-195309523D01*
%TO.C,D63*%
X273452380Y-192785714D02*
X272452380Y-192785714D01*
X272452380Y-193023809D01*
X272500000Y-193166666D01*
X272595238Y-193261904D01*
X272690476Y-193309523D01*
X272880952Y-193357142D01*
X273023809Y-193357142D01*
X273214285Y-193309523D01*
X273309523Y-193261904D01*
X273404761Y-193166666D01*
X273452380Y-193023809D01*
X273452380Y-192785714D01*
X272452380Y-194214285D02*
X272452380Y-194023809D01*
X272500000Y-193928571D01*
X272547619Y-193880952D01*
X272690476Y-193785714D01*
X272880952Y-193738095D01*
X273261904Y-193738095D01*
X273357142Y-193785714D01*
X273404761Y-193833333D01*
X273452380Y-193928571D01*
X273452380Y-194119047D01*
X273404761Y-194214285D01*
X273357142Y-194261904D01*
X273261904Y-194309523D01*
X273023809Y-194309523D01*
X272928571Y-194261904D01*
X272880952Y-194214285D01*
X272833333Y-194119047D01*
X272833333Y-193928571D01*
X272880952Y-193833333D01*
X272928571Y-193785714D01*
X273023809Y-193738095D01*
X272452380Y-194642857D02*
X272452380Y-195261904D01*
X272833333Y-194928571D01*
X272833333Y-195071428D01*
X272880952Y-195166666D01*
X272928571Y-195214285D01*
X273023809Y-195261904D01*
X273261904Y-195261904D01*
X273357142Y-195214285D01*
X273404761Y-195166666D01*
X273452380Y-195071428D01*
X273452380Y-194785714D01*
X273404761Y-194690476D01*
X273357142Y-194642857D01*
%TO.C,D62*%
X249452380Y-192785714D02*
X248452380Y-192785714D01*
X248452380Y-193023809D01*
X248500000Y-193166666D01*
X248595238Y-193261904D01*
X248690476Y-193309523D01*
X248880952Y-193357142D01*
X249023809Y-193357142D01*
X249214285Y-193309523D01*
X249309523Y-193261904D01*
X249404761Y-193166666D01*
X249452380Y-193023809D01*
X249452380Y-192785714D01*
X248452380Y-194214285D02*
X248452380Y-194023809D01*
X248500000Y-193928571D01*
X248547619Y-193880952D01*
X248690476Y-193785714D01*
X248880952Y-193738095D01*
X249261904Y-193738095D01*
X249357142Y-193785714D01*
X249404761Y-193833333D01*
X249452380Y-193928571D01*
X249452380Y-194119047D01*
X249404761Y-194214285D01*
X249357142Y-194261904D01*
X249261904Y-194309523D01*
X249023809Y-194309523D01*
X248928571Y-194261904D01*
X248880952Y-194214285D01*
X248833333Y-194119047D01*
X248833333Y-193928571D01*
X248880952Y-193833333D01*
X248928571Y-193785714D01*
X249023809Y-193738095D01*
X248547619Y-194690476D02*
X248500000Y-194738095D01*
X248452380Y-194833333D01*
X248452380Y-195071428D01*
X248500000Y-195166666D01*
X248547619Y-195214285D01*
X248642857Y-195261904D01*
X248738095Y-195261904D01*
X248880952Y-195214285D01*
X249452380Y-194642857D01*
X249452380Y-195261904D01*
%TO.C,D61*%
X177514880Y-192785714D02*
X176514880Y-192785714D01*
X176514880Y-193023809D01*
X176562500Y-193166666D01*
X176657738Y-193261904D01*
X176752976Y-193309523D01*
X176943452Y-193357142D01*
X177086309Y-193357142D01*
X177276785Y-193309523D01*
X177372023Y-193261904D01*
X177467261Y-193166666D01*
X177514880Y-193023809D01*
X177514880Y-192785714D01*
X176514880Y-194214285D02*
X176514880Y-194023809D01*
X176562500Y-193928571D01*
X176610119Y-193880952D01*
X176752976Y-193785714D01*
X176943452Y-193738095D01*
X177324404Y-193738095D01*
X177419642Y-193785714D01*
X177467261Y-193833333D01*
X177514880Y-193928571D01*
X177514880Y-194119047D01*
X177467261Y-194214285D01*
X177419642Y-194261904D01*
X177324404Y-194309523D01*
X177086309Y-194309523D01*
X176991071Y-194261904D01*
X176943452Y-194214285D01*
X176895833Y-194119047D01*
X176895833Y-193928571D01*
X176943452Y-193833333D01*
X176991071Y-193785714D01*
X177086309Y-193738095D01*
X177514880Y-195261904D02*
X177514880Y-194690476D01*
X177514880Y-194976190D02*
X176514880Y-194976190D01*
X176657738Y-194880952D01*
X176752976Y-194785714D01*
X176800595Y-194690476D01*
%TO.C,D60*%
X106077380Y-192785714D02*
X105077380Y-192785714D01*
X105077380Y-193023809D01*
X105125000Y-193166666D01*
X105220238Y-193261904D01*
X105315476Y-193309523D01*
X105505952Y-193357142D01*
X105648809Y-193357142D01*
X105839285Y-193309523D01*
X105934523Y-193261904D01*
X106029761Y-193166666D01*
X106077380Y-193023809D01*
X106077380Y-192785714D01*
X105077380Y-194214285D02*
X105077380Y-194023809D01*
X105125000Y-193928571D01*
X105172619Y-193880952D01*
X105315476Y-193785714D01*
X105505952Y-193738095D01*
X105886904Y-193738095D01*
X105982142Y-193785714D01*
X106029761Y-193833333D01*
X106077380Y-193928571D01*
X106077380Y-194119047D01*
X106029761Y-194214285D01*
X105982142Y-194261904D01*
X105886904Y-194309523D01*
X105648809Y-194309523D01*
X105553571Y-194261904D01*
X105505952Y-194214285D01*
X105458333Y-194119047D01*
X105458333Y-193928571D01*
X105505952Y-193833333D01*
X105553571Y-193785714D01*
X105648809Y-193738095D01*
X105077380Y-194928571D02*
X105077380Y-195023809D01*
X105125000Y-195119047D01*
X105172619Y-195166666D01*
X105267857Y-195214285D01*
X105458333Y-195261904D01*
X105696428Y-195261904D01*
X105886904Y-195214285D01*
X105982142Y-195166666D01*
X106029761Y-195119047D01*
X106077380Y-195023809D01*
X106077380Y-194928571D01*
X106029761Y-194833333D01*
X105982142Y-194785714D01*
X105886904Y-194738095D01*
X105696428Y-194690476D01*
X105458333Y-194690476D01*
X105267857Y-194738095D01*
X105172619Y-194785714D01*
X105125000Y-194833333D01*
X105077380Y-194928571D01*
%TO.C,D59*%
X82264880Y-192785714D02*
X81264880Y-192785714D01*
X81264880Y-193023809D01*
X81312500Y-193166666D01*
X81407738Y-193261904D01*
X81502976Y-193309523D01*
X81693452Y-193357142D01*
X81836309Y-193357142D01*
X82026785Y-193309523D01*
X82122023Y-193261904D01*
X82217261Y-193166666D01*
X82264880Y-193023809D01*
X82264880Y-192785714D01*
X81264880Y-194261904D02*
X81264880Y-193785714D01*
X81741071Y-193738095D01*
X81693452Y-193785714D01*
X81645833Y-193880952D01*
X81645833Y-194119047D01*
X81693452Y-194214285D01*
X81741071Y-194261904D01*
X81836309Y-194309523D01*
X82074404Y-194309523D01*
X82169642Y-194261904D01*
X82217261Y-194214285D01*
X82264880Y-194119047D01*
X82264880Y-193880952D01*
X82217261Y-193785714D01*
X82169642Y-193738095D01*
X82264880Y-194785714D02*
X82264880Y-194976190D01*
X82217261Y-195071428D01*
X82169642Y-195119047D01*
X82026785Y-195214285D01*
X81836309Y-195261904D01*
X81455357Y-195261904D01*
X81360119Y-195214285D01*
X81312500Y-195166666D01*
X81264880Y-195071428D01*
X81264880Y-194880952D01*
X81312500Y-194785714D01*
X81360119Y-194738095D01*
X81455357Y-194690476D01*
X81693452Y-194690476D01*
X81788690Y-194738095D01*
X81836309Y-194785714D01*
X81883928Y-194880952D01*
X81883928Y-195071428D01*
X81836309Y-195166666D01*
X81788690Y-195214285D01*
X81693452Y-195261904D01*
%TO.C,D58*%
X58452380Y-192785714D02*
X57452380Y-192785714D01*
X57452380Y-193023809D01*
X57500000Y-193166666D01*
X57595238Y-193261904D01*
X57690476Y-193309523D01*
X57880952Y-193357142D01*
X58023809Y-193357142D01*
X58214285Y-193309523D01*
X58309523Y-193261904D01*
X58404761Y-193166666D01*
X58452380Y-193023809D01*
X58452380Y-192785714D01*
X57452380Y-194261904D02*
X57452380Y-193785714D01*
X57928571Y-193738095D01*
X57880952Y-193785714D01*
X57833333Y-193880952D01*
X57833333Y-194119047D01*
X57880952Y-194214285D01*
X57928571Y-194261904D01*
X58023809Y-194309523D01*
X58261904Y-194309523D01*
X58357142Y-194261904D01*
X58404761Y-194214285D01*
X58452380Y-194119047D01*
X58452380Y-193880952D01*
X58404761Y-193785714D01*
X58357142Y-193738095D01*
X57880952Y-194880952D02*
X57833333Y-194785714D01*
X57785714Y-194738095D01*
X57690476Y-194690476D01*
X57642857Y-194690476D01*
X57547619Y-194738095D01*
X57500000Y-194785714D01*
X57452380Y-194880952D01*
X57452380Y-195071428D01*
X57500000Y-195166666D01*
X57547619Y-195214285D01*
X57642857Y-195261904D01*
X57690476Y-195261904D01*
X57785714Y-195214285D01*
X57833333Y-195166666D01*
X57880952Y-195071428D01*
X57880952Y-194880952D01*
X57928571Y-194785714D01*
X57976190Y-194738095D01*
X58071428Y-194690476D01*
X58261904Y-194690476D01*
X58357142Y-194738095D01*
X58404761Y-194785714D01*
X58452380Y-194880952D01*
X58452380Y-195071428D01*
X58404761Y-195166666D01*
X58357142Y-195214285D01*
X58261904Y-195261904D01*
X58071428Y-195261904D01*
X57976190Y-195214285D01*
X57928571Y-195166666D01*
X57880952Y-195071428D01*
%TO.C,D57*%
X309452380Y-172785714D02*
X308452380Y-172785714D01*
X308452380Y-173023809D01*
X308500000Y-173166666D01*
X308595238Y-173261904D01*
X308690476Y-173309523D01*
X308880952Y-173357142D01*
X309023809Y-173357142D01*
X309214285Y-173309523D01*
X309309523Y-173261904D01*
X309404761Y-173166666D01*
X309452380Y-173023809D01*
X309452380Y-172785714D01*
X308452380Y-174261904D02*
X308452380Y-173785714D01*
X308928571Y-173738095D01*
X308880952Y-173785714D01*
X308833333Y-173880952D01*
X308833333Y-174119047D01*
X308880952Y-174214285D01*
X308928571Y-174261904D01*
X309023809Y-174309523D01*
X309261904Y-174309523D01*
X309357142Y-174261904D01*
X309404761Y-174214285D01*
X309452380Y-174119047D01*
X309452380Y-173880952D01*
X309404761Y-173785714D01*
X309357142Y-173738095D01*
X308452380Y-174642857D02*
X308452380Y-175309523D01*
X309452380Y-174880952D01*
%TO.C,D56*%
X305452380Y-172785714D02*
X304452380Y-172785714D01*
X304452380Y-173023809D01*
X304500000Y-173166666D01*
X304595238Y-173261904D01*
X304690476Y-173309523D01*
X304880952Y-173357142D01*
X305023809Y-173357142D01*
X305214285Y-173309523D01*
X305309523Y-173261904D01*
X305404761Y-173166666D01*
X305452380Y-173023809D01*
X305452380Y-172785714D01*
X304452380Y-174261904D02*
X304452380Y-173785714D01*
X304928571Y-173738095D01*
X304880952Y-173785714D01*
X304833333Y-173880952D01*
X304833333Y-174119047D01*
X304880952Y-174214285D01*
X304928571Y-174261904D01*
X305023809Y-174309523D01*
X305261904Y-174309523D01*
X305357142Y-174261904D01*
X305404761Y-174214285D01*
X305452380Y-174119047D01*
X305452380Y-173880952D01*
X305404761Y-173785714D01*
X305357142Y-173738095D01*
X304452380Y-175166666D02*
X304452380Y-174976190D01*
X304500000Y-174880952D01*
X304547619Y-174833333D01*
X304690476Y-174738095D01*
X304880952Y-174690476D01*
X305261904Y-174690476D01*
X305357142Y-174738095D01*
X305404761Y-174785714D01*
X305452380Y-174880952D01*
X305452380Y-175071428D01*
X305404761Y-175166666D01*
X305357142Y-175214285D01*
X305261904Y-175261904D01*
X305023809Y-175261904D01*
X304928571Y-175214285D01*
X304880952Y-175166666D01*
X304833333Y-175071428D01*
X304833333Y-174880952D01*
X304880952Y-174785714D01*
X304928571Y-174738095D01*
X305023809Y-174690476D01*
%TO.C,D55*%
X269952380Y-172785714D02*
X268952380Y-172785714D01*
X268952380Y-173023809D01*
X269000000Y-173166666D01*
X269095238Y-173261904D01*
X269190476Y-173309523D01*
X269380952Y-173357142D01*
X269523809Y-173357142D01*
X269714285Y-173309523D01*
X269809523Y-173261904D01*
X269904761Y-173166666D01*
X269952380Y-173023809D01*
X269952380Y-172785714D01*
X268952380Y-174261904D02*
X268952380Y-173785714D01*
X269428571Y-173738095D01*
X269380952Y-173785714D01*
X269333333Y-173880952D01*
X269333333Y-174119047D01*
X269380952Y-174214285D01*
X269428571Y-174261904D01*
X269523809Y-174309523D01*
X269761904Y-174309523D01*
X269857142Y-174261904D01*
X269904761Y-174214285D01*
X269952380Y-174119047D01*
X269952380Y-173880952D01*
X269904761Y-173785714D01*
X269857142Y-173738095D01*
X268952380Y-175214285D02*
X268952380Y-174738095D01*
X269428571Y-174690476D01*
X269380952Y-174738095D01*
X269333333Y-174833333D01*
X269333333Y-175071428D01*
X269380952Y-175166666D01*
X269428571Y-175214285D01*
X269523809Y-175261904D01*
X269761904Y-175261904D01*
X269857142Y-175214285D01*
X269904761Y-175166666D01*
X269952380Y-175071428D01*
X269952380Y-174833333D01*
X269904761Y-174738095D01*
X269857142Y-174690476D01*
%TO.C,D54*%
X250902380Y-172785714D02*
X249902380Y-172785714D01*
X249902380Y-173023809D01*
X249950000Y-173166666D01*
X250045238Y-173261904D01*
X250140476Y-173309523D01*
X250330952Y-173357142D01*
X250473809Y-173357142D01*
X250664285Y-173309523D01*
X250759523Y-173261904D01*
X250854761Y-173166666D01*
X250902380Y-173023809D01*
X250902380Y-172785714D01*
X249902380Y-174261904D02*
X249902380Y-173785714D01*
X250378571Y-173738095D01*
X250330952Y-173785714D01*
X250283333Y-173880952D01*
X250283333Y-174119047D01*
X250330952Y-174214285D01*
X250378571Y-174261904D01*
X250473809Y-174309523D01*
X250711904Y-174309523D01*
X250807142Y-174261904D01*
X250854761Y-174214285D01*
X250902380Y-174119047D01*
X250902380Y-173880952D01*
X250854761Y-173785714D01*
X250807142Y-173738095D01*
X250235714Y-175166666D02*
X250902380Y-175166666D01*
X249854761Y-174928571D02*
X250569047Y-174690476D01*
X250569047Y-175309523D01*
%TO.C,D53*%
X231852380Y-172785714D02*
X230852380Y-172785714D01*
X230852380Y-173023809D01*
X230900000Y-173166666D01*
X230995238Y-173261904D01*
X231090476Y-173309523D01*
X231280952Y-173357142D01*
X231423809Y-173357142D01*
X231614285Y-173309523D01*
X231709523Y-173261904D01*
X231804761Y-173166666D01*
X231852380Y-173023809D01*
X231852380Y-172785714D01*
X230852380Y-174261904D02*
X230852380Y-173785714D01*
X231328571Y-173738095D01*
X231280952Y-173785714D01*
X231233333Y-173880952D01*
X231233333Y-174119047D01*
X231280952Y-174214285D01*
X231328571Y-174261904D01*
X231423809Y-174309523D01*
X231661904Y-174309523D01*
X231757142Y-174261904D01*
X231804761Y-174214285D01*
X231852380Y-174119047D01*
X231852380Y-173880952D01*
X231804761Y-173785714D01*
X231757142Y-173738095D01*
X230852380Y-174642857D02*
X230852380Y-175261904D01*
X231233333Y-174928571D01*
X231233333Y-175071428D01*
X231280952Y-175166666D01*
X231328571Y-175214285D01*
X231423809Y-175261904D01*
X231661904Y-175261904D01*
X231757142Y-175214285D01*
X231804761Y-175166666D01*
X231852380Y-175071428D01*
X231852380Y-174785714D01*
X231804761Y-174690476D01*
X231757142Y-174642857D01*
%TO.C,D52*%
X212802380Y-172785714D02*
X211802380Y-172785714D01*
X211802380Y-173023809D01*
X211850000Y-173166666D01*
X211945238Y-173261904D01*
X212040476Y-173309523D01*
X212230952Y-173357142D01*
X212373809Y-173357142D01*
X212564285Y-173309523D01*
X212659523Y-173261904D01*
X212754761Y-173166666D01*
X212802380Y-173023809D01*
X212802380Y-172785714D01*
X211802380Y-174261904D02*
X211802380Y-173785714D01*
X212278571Y-173738095D01*
X212230952Y-173785714D01*
X212183333Y-173880952D01*
X212183333Y-174119047D01*
X212230952Y-174214285D01*
X212278571Y-174261904D01*
X212373809Y-174309523D01*
X212611904Y-174309523D01*
X212707142Y-174261904D01*
X212754761Y-174214285D01*
X212802380Y-174119047D01*
X212802380Y-173880952D01*
X212754761Y-173785714D01*
X212707142Y-173738095D01*
X211897619Y-174690476D02*
X211850000Y-174738095D01*
X211802380Y-174833333D01*
X211802380Y-175071428D01*
X211850000Y-175166666D01*
X211897619Y-175214285D01*
X211992857Y-175261904D01*
X212088095Y-175261904D01*
X212230952Y-175214285D01*
X212802380Y-174642857D01*
X212802380Y-175261904D01*
%TO.C,D51*%
X193752380Y-172785714D02*
X192752380Y-172785714D01*
X192752380Y-173023809D01*
X192800000Y-173166666D01*
X192895238Y-173261904D01*
X192990476Y-173309523D01*
X193180952Y-173357142D01*
X193323809Y-173357142D01*
X193514285Y-173309523D01*
X193609523Y-173261904D01*
X193704761Y-173166666D01*
X193752380Y-173023809D01*
X193752380Y-172785714D01*
X192752380Y-174261904D02*
X192752380Y-173785714D01*
X193228571Y-173738095D01*
X193180952Y-173785714D01*
X193133333Y-173880952D01*
X193133333Y-174119047D01*
X193180952Y-174214285D01*
X193228571Y-174261904D01*
X193323809Y-174309523D01*
X193561904Y-174309523D01*
X193657142Y-174261904D01*
X193704761Y-174214285D01*
X193752380Y-174119047D01*
X193752380Y-173880952D01*
X193704761Y-173785714D01*
X193657142Y-173738095D01*
X193752380Y-175261904D02*
X193752380Y-174690476D01*
X193752380Y-174976190D02*
X192752380Y-174976190D01*
X192895238Y-174880952D01*
X192990476Y-174785714D01*
X193038095Y-174690476D01*
%TO.C,D50*%
X174702380Y-172785714D02*
X173702380Y-172785714D01*
X173702380Y-173023809D01*
X173750000Y-173166666D01*
X173845238Y-173261904D01*
X173940476Y-173309523D01*
X174130952Y-173357142D01*
X174273809Y-173357142D01*
X174464285Y-173309523D01*
X174559523Y-173261904D01*
X174654761Y-173166666D01*
X174702380Y-173023809D01*
X174702380Y-172785714D01*
X173702380Y-174261904D02*
X173702380Y-173785714D01*
X174178571Y-173738095D01*
X174130952Y-173785714D01*
X174083333Y-173880952D01*
X174083333Y-174119047D01*
X174130952Y-174214285D01*
X174178571Y-174261904D01*
X174273809Y-174309523D01*
X174511904Y-174309523D01*
X174607142Y-174261904D01*
X174654761Y-174214285D01*
X174702380Y-174119047D01*
X174702380Y-173880952D01*
X174654761Y-173785714D01*
X174607142Y-173738095D01*
X173702380Y-174928571D02*
X173702380Y-175023809D01*
X173750000Y-175119047D01*
X173797619Y-175166666D01*
X173892857Y-175214285D01*
X174083333Y-175261904D01*
X174321428Y-175261904D01*
X174511904Y-175214285D01*
X174607142Y-175166666D01*
X174654761Y-175119047D01*
X174702380Y-175023809D01*
X174702380Y-174928571D01*
X174654761Y-174833333D01*
X174607142Y-174785714D01*
X174511904Y-174738095D01*
X174321428Y-174690476D01*
X174083333Y-174690476D01*
X173892857Y-174738095D01*
X173797619Y-174785714D01*
X173750000Y-174833333D01*
X173702380Y-174928571D01*
%TO.C,D49*%
X155652380Y-172785714D02*
X154652380Y-172785714D01*
X154652380Y-173023809D01*
X154700000Y-173166666D01*
X154795238Y-173261904D01*
X154890476Y-173309523D01*
X155080952Y-173357142D01*
X155223809Y-173357142D01*
X155414285Y-173309523D01*
X155509523Y-173261904D01*
X155604761Y-173166666D01*
X155652380Y-173023809D01*
X155652380Y-172785714D01*
X154985714Y-174214285D02*
X155652380Y-174214285D01*
X154604761Y-173976190D02*
X155319047Y-173738095D01*
X155319047Y-174357142D01*
X155652380Y-174785714D02*
X155652380Y-174976190D01*
X155604761Y-175071428D01*
X155557142Y-175119047D01*
X155414285Y-175214285D01*
X155223809Y-175261904D01*
X154842857Y-175261904D01*
X154747619Y-175214285D01*
X154700000Y-175166666D01*
X154652380Y-175071428D01*
X154652380Y-174880952D01*
X154700000Y-174785714D01*
X154747619Y-174738095D01*
X154842857Y-174690476D01*
X155080952Y-174690476D01*
X155176190Y-174738095D01*
X155223809Y-174785714D01*
X155271428Y-174880952D01*
X155271428Y-175071428D01*
X155223809Y-175166666D01*
X155176190Y-175214285D01*
X155080952Y-175261904D01*
%TO.C,D48*%
X136602380Y-172785714D02*
X135602380Y-172785714D01*
X135602380Y-173023809D01*
X135650000Y-173166666D01*
X135745238Y-173261904D01*
X135840476Y-173309523D01*
X136030952Y-173357142D01*
X136173809Y-173357142D01*
X136364285Y-173309523D01*
X136459523Y-173261904D01*
X136554761Y-173166666D01*
X136602380Y-173023809D01*
X136602380Y-172785714D01*
X135935714Y-174214285D02*
X136602380Y-174214285D01*
X135554761Y-173976190D02*
X136269047Y-173738095D01*
X136269047Y-174357142D01*
X136030952Y-174880952D02*
X135983333Y-174785714D01*
X135935714Y-174738095D01*
X135840476Y-174690476D01*
X135792857Y-174690476D01*
X135697619Y-174738095D01*
X135650000Y-174785714D01*
X135602380Y-174880952D01*
X135602380Y-175071428D01*
X135650000Y-175166666D01*
X135697619Y-175214285D01*
X135792857Y-175261904D01*
X135840476Y-175261904D01*
X135935714Y-175214285D01*
X135983333Y-175166666D01*
X136030952Y-175071428D01*
X136030952Y-174880952D01*
X136078571Y-174785714D01*
X136126190Y-174738095D01*
X136221428Y-174690476D01*
X136411904Y-174690476D01*
X136507142Y-174738095D01*
X136554761Y-174785714D01*
X136602380Y-174880952D01*
X136602380Y-175071428D01*
X136554761Y-175166666D01*
X136507142Y-175214285D01*
X136411904Y-175261904D01*
X136221428Y-175261904D01*
X136126190Y-175214285D01*
X136078571Y-175166666D01*
X136030952Y-175071428D01*
%TO.C,D47*%
X117552380Y-172785714D02*
X116552380Y-172785714D01*
X116552380Y-173023809D01*
X116600000Y-173166666D01*
X116695238Y-173261904D01*
X116790476Y-173309523D01*
X116980952Y-173357142D01*
X117123809Y-173357142D01*
X117314285Y-173309523D01*
X117409523Y-173261904D01*
X117504761Y-173166666D01*
X117552380Y-173023809D01*
X117552380Y-172785714D01*
X116885714Y-174214285D02*
X117552380Y-174214285D01*
X116504761Y-173976190D02*
X117219047Y-173738095D01*
X117219047Y-174357142D01*
X116552380Y-174642857D02*
X116552380Y-175309523D01*
X117552380Y-174880952D01*
%TO.C,D46*%
X98502380Y-172785714D02*
X97502380Y-172785714D01*
X97502380Y-173023809D01*
X97550000Y-173166666D01*
X97645238Y-173261904D01*
X97740476Y-173309523D01*
X97930952Y-173357142D01*
X98073809Y-173357142D01*
X98264285Y-173309523D01*
X98359523Y-173261904D01*
X98454761Y-173166666D01*
X98502380Y-173023809D01*
X98502380Y-172785714D01*
X97835714Y-174214285D02*
X98502380Y-174214285D01*
X97454761Y-173976190D02*
X98169047Y-173738095D01*
X98169047Y-174357142D01*
X97502380Y-175166666D02*
X97502380Y-174976190D01*
X97550000Y-174880952D01*
X97597619Y-174833333D01*
X97740476Y-174738095D01*
X97930952Y-174690476D01*
X98311904Y-174690476D01*
X98407142Y-174738095D01*
X98454761Y-174785714D01*
X98502380Y-174880952D01*
X98502380Y-175071428D01*
X98454761Y-175166666D01*
X98407142Y-175214285D01*
X98311904Y-175261904D01*
X98073809Y-175261904D01*
X97978571Y-175214285D01*
X97930952Y-175166666D01*
X97883333Y-175071428D01*
X97883333Y-174880952D01*
X97930952Y-174785714D01*
X97978571Y-174738095D01*
X98073809Y-174690476D01*
%TO.C,D45*%
X79452380Y-172785714D02*
X78452380Y-172785714D01*
X78452380Y-173023809D01*
X78500000Y-173166666D01*
X78595238Y-173261904D01*
X78690476Y-173309523D01*
X78880952Y-173357142D01*
X79023809Y-173357142D01*
X79214285Y-173309523D01*
X79309523Y-173261904D01*
X79404761Y-173166666D01*
X79452380Y-173023809D01*
X79452380Y-172785714D01*
X78785714Y-174214285D02*
X79452380Y-174214285D01*
X78404761Y-173976190D02*
X79119047Y-173738095D01*
X79119047Y-174357142D01*
X78452380Y-175214285D02*
X78452380Y-174738095D01*
X78928571Y-174690476D01*
X78880952Y-174738095D01*
X78833333Y-174833333D01*
X78833333Y-175071428D01*
X78880952Y-175166666D01*
X78928571Y-175214285D01*
X79023809Y-175261904D01*
X79261904Y-175261904D01*
X79357142Y-175214285D01*
X79404761Y-175166666D01*
X79452380Y-175071428D01*
X79452380Y-174833333D01*
X79404761Y-174738095D01*
X79357142Y-174690476D01*
%TO.C,D44*%
X67452380Y-172785714D02*
X66452380Y-172785714D01*
X66452380Y-173023809D01*
X66500000Y-173166666D01*
X66595238Y-173261904D01*
X66690476Y-173309523D01*
X66880952Y-173357142D01*
X67023809Y-173357142D01*
X67214285Y-173309523D01*
X67309523Y-173261904D01*
X67404761Y-173166666D01*
X67452380Y-173023809D01*
X67452380Y-172785714D01*
X66785714Y-174214285D02*
X67452380Y-174214285D01*
X66404761Y-173976190D02*
X67119047Y-173738095D01*
X67119047Y-174357142D01*
X66785714Y-175166666D02*
X67452380Y-175166666D01*
X66404761Y-174928571D02*
X67119047Y-174690476D01*
X67119047Y-175309523D01*
%TO.C,D43*%
X304452380Y-152785714D02*
X303452380Y-152785714D01*
X303452380Y-153023809D01*
X303500000Y-153166666D01*
X303595238Y-153261904D01*
X303690476Y-153309523D01*
X303880952Y-153357142D01*
X304023809Y-153357142D01*
X304214285Y-153309523D01*
X304309523Y-153261904D01*
X304404761Y-153166666D01*
X304452380Y-153023809D01*
X304452380Y-152785714D01*
X303785714Y-154214285D02*
X304452380Y-154214285D01*
X303404761Y-153976190D02*
X304119047Y-153738095D01*
X304119047Y-154357142D01*
X303452380Y-154642857D02*
X303452380Y-155261904D01*
X303833333Y-154928571D01*
X303833333Y-155071428D01*
X303880952Y-155166666D01*
X303928571Y-155214285D01*
X304023809Y-155261904D01*
X304261904Y-155261904D01*
X304357142Y-155214285D01*
X304404761Y-155166666D01*
X304452380Y-155071428D01*
X304452380Y-154785714D01*
X304404761Y-154690476D01*
X304357142Y-154642857D01*
%TO.C,D42*%
X300452380Y-152785714D02*
X299452380Y-152785714D01*
X299452380Y-153023809D01*
X299500000Y-153166666D01*
X299595238Y-153261904D01*
X299690476Y-153309523D01*
X299880952Y-153357142D01*
X300023809Y-153357142D01*
X300214285Y-153309523D01*
X300309523Y-153261904D01*
X300404761Y-153166666D01*
X300452380Y-153023809D01*
X300452380Y-152785714D01*
X299785714Y-154214285D02*
X300452380Y-154214285D01*
X299404761Y-153976190D02*
X300119047Y-153738095D01*
X300119047Y-154357142D01*
X299547619Y-154690476D02*
X299500000Y-154738095D01*
X299452380Y-154833333D01*
X299452380Y-155071428D01*
X299500000Y-155166666D01*
X299547619Y-155214285D01*
X299642857Y-155261904D01*
X299738095Y-155261904D01*
X299880952Y-155214285D01*
X300452380Y-154642857D01*
X300452380Y-155261904D01*
%TO.C,D41*%
X278952380Y-152785714D02*
X277952380Y-152785714D01*
X277952380Y-153023809D01*
X278000000Y-153166666D01*
X278095238Y-153261904D01*
X278190476Y-153309523D01*
X278380952Y-153357142D01*
X278523809Y-153357142D01*
X278714285Y-153309523D01*
X278809523Y-153261904D01*
X278904761Y-153166666D01*
X278952380Y-153023809D01*
X278952380Y-152785714D01*
X278285714Y-154214285D02*
X278952380Y-154214285D01*
X277904761Y-153976190D02*
X278619047Y-153738095D01*
X278619047Y-154357142D01*
X278952380Y-155261904D02*
X278952380Y-154690476D01*
X278952380Y-154976190D02*
X277952380Y-154976190D01*
X278095238Y-154880952D01*
X278190476Y-154785714D01*
X278238095Y-154690476D01*
%TO.C,D40*%
X259902380Y-152785714D02*
X258902380Y-152785714D01*
X258902380Y-153023809D01*
X258950000Y-153166666D01*
X259045238Y-153261904D01*
X259140476Y-153309523D01*
X259330952Y-153357142D01*
X259473809Y-153357142D01*
X259664285Y-153309523D01*
X259759523Y-153261904D01*
X259854761Y-153166666D01*
X259902380Y-153023809D01*
X259902380Y-152785714D01*
X259235714Y-154214285D02*
X259902380Y-154214285D01*
X258854761Y-153976190D02*
X259569047Y-153738095D01*
X259569047Y-154357142D01*
X258902380Y-154928571D02*
X258902380Y-155023809D01*
X258950000Y-155119047D01*
X258997619Y-155166666D01*
X259092857Y-155214285D01*
X259283333Y-155261904D01*
X259521428Y-155261904D01*
X259711904Y-155214285D01*
X259807142Y-155166666D01*
X259854761Y-155119047D01*
X259902380Y-155023809D01*
X259902380Y-154928571D01*
X259854761Y-154833333D01*
X259807142Y-154785714D01*
X259711904Y-154738095D01*
X259521428Y-154690476D01*
X259283333Y-154690476D01*
X259092857Y-154738095D01*
X258997619Y-154785714D01*
X258950000Y-154833333D01*
X258902380Y-154928571D01*
%TO.C,D39*%
X240852380Y-152785714D02*
X239852380Y-152785714D01*
X239852380Y-153023809D01*
X239900000Y-153166666D01*
X239995238Y-153261904D01*
X240090476Y-153309523D01*
X240280952Y-153357142D01*
X240423809Y-153357142D01*
X240614285Y-153309523D01*
X240709523Y-153261904D01*
X240804761Y-153166666D01*
X240852380Y-153023809D01*
X240852380Y-152785714D01*
X239852380Y-153690476D02*
X239852380Y-154309523D01*
X240233333Y-153976190D01*
X240233333Y-154119047D01*
X240280952Y-154214285D01*
X240328571Y-154261904D01*
X240423809Y-154309523D01*
X240661904Y-154309523D01*
X240757142Y-154261904D01*
X240804761Y-154214285D01*
X240852380Y-154119047D01*
X240852380Y-153833333D01*
X240804761Y-153738095D01*
X240757142Y-153690476D01*
X240852380Y-154785714D02*
X240852380Y-154976190D01*
X240804761Y-155071428D01*
X240757142Y-155119047D01*
X240614285Y-155214285D01*
X240423809Y-155261904D01*
X240042857Y-155261904D01*
X239947619Y-155214285D01*
X239900000Y-155166666D01*
X239852380Y-155071428D01*
X239852380Y-154880952D01*
X239900000Y-154785714D01*
X239947619Y-154738095D01*
X240042857Y-154690476D01*
X240280952Y-154690476D01*
X240376190Y-154738095D01*
X240423809Y-154785714D01*
X240471428Y-154880952D01*
X240471428Y-155071428D01*
X240423809Y-155166666D01*
X240376190Y-155214285D01*
X240280952Y-155261904D01*
%TO.C,D38*%
X221802380Y-152785714D02*
X220802380Y-152785714D01*
X220802380Y-153023809D01*
X220850000Y-153166666D01*
X220945238Y-153261904D01*
X221040476Y-153309523D01*
X221230952Y-153357142D01*
X221373809Y-153357142D01*
X221564285Y-153309523D01*
X221659523Y-153261904D01*
X221754761Y-153166666D01*
X221802380Y-153023809D01*
X221802380Y-152785714D01*
X220802380Y-153690476D02*
X220802380Y-154309523D01*
X221183333Y-153976190D01*
X221183333Y-154119047D01*
X221230952Y-154214285D01*
X221278571Y-154261904D01*
X221373809Y-154309523D01*
X221611904Y-154309523D01*
X221707142Y-154261904D01*
X221754761Y-154214285D01*
X221802380Y-154119047D01*
X221802380Y-153833333D01*
X221754761Y-153738095D01*
X221707142Y-153690476D01*
X221230952Y-154880952D02*
X221183333Y-154785714D01*
X221135714Y-154738095D01*
X221040476Y-154690476D01*
X220992857Y-154690476D01*
X220897619Y-154738095D01*
X220850000Y-154785714D01*
X220802380Y-154880952D01*
X220802380Y-155071428D01*
X220850000Y-155166666D01*
X220897619Y-155214285D01*
X220992857Y-155261904D01*
X221040476Y-155261904D01*
X221135714Y-155214285D01*
X221183333Y-155166666D01*
X221230952Y-155071428D01*
X221230952Y-154880952D01*
X221278571Y-154785714D01*
X221326190Y-154738095D01*
X221421428Y-154690476D01*
X221611904Y-154690476D01*
X221707142Y-154738095D01*
X221754761Y-154785714D01*
X221802380Y-154880952D01*
X221802380Y-155071428D01*
X221754761Y-155166666D01*
X221707142Y-155214285D01*
X221611904Y-155261904D01*
X221421428Y-155261904D01*
X221326190Y-155214285D01*
X221278571Y-155166666D01*
X221230952Y-155071428D01*
%TO.C,D37*%
X202752380Y-152785714D02*
X201752380Y-152785714D01*
X201752380Y-153023809D01*
X201800000Y-153166666D01*
X201895238Y-153261904D01*
X201990476Y-153309523D01*
X202180952Y-153357142D01*
X202323809Y-153357142D01*
X202514285Y-153309523D01*
X202609523Y-153261904D01*
X202704761Y-153166666D01*
X202752380Y-153023809D01*
X202752380Y-152785714D01*
X201752380Y-153690476D02*
X201752380Y-154309523D01*
X202133333Y-153976190D01*
X202133333Y-154119047D01*
X202180952Y-154214285D01*
X202228571Y-154261904D01*
X202323809Y-154309523D01*
X202561904Y-154309523D01*
X202657142Y-154261904D01*
X202704761Y-154214285D01*
X202752380Y-154119047D01*
X202752380Y-153833333D01*
X202704761Y-153738095D01*
X202657142Y-153690476D01*
X201752380Y-154642857D02*
X201752380Y-155309523D01*
X202752380Y-154880952D01*
%TO.C,D36*%
X183702380Y-152785714D02*
X182702380Y-152785714D01*
X182702380Y-153023809D01*
X182750000Y-153166666D01*
X182845238Y-153261904D01*
X182940476Y-153309523D01*
X183130952Y-153357142D01*
X183273809Y-153357142D01*
X183464285Y-153309523D01*
X183559523Y-153261904D01*
X183654761Y-153166666D01*
X183702380Y-153023809D01*
X183702380Y-152785714D01*
X182702380Y-153690476D02*
X182702380Y-154309523D01*
X183083333Y-153976190D01*
X183083333Y-154119047D01*
X183130952Y-154214285D01*
X183178571Y-154261904D01*
X183273809Y-154309523D01*
X183511904Y-154309523D01*
X183607142Y-154261904D01*
X183654761Y-154214285D01*
X183702380Y-154119047D01*
X183702380Y-153833333D01*
X183654761Y-153738095D01*
X183607142Y-153690476D01*
X182702380Y-155166666D02*
X182702380Y-154976190D01*
X182750000Y-154880952D01*
X182797619Y-154833333D01*
X182940476Y-154738095D01*
X183130952Y-154690476D01*
X183511904Y-154690476D01*
X183607142Y-154738095D01*
X183654761Y-154785714D01*
X183702380Y-154880952D01*
X183702380Y-155071428D01*
X183654761Y-155166666D01*
X183607142Y-155214285D01*
X183511904Y-155261904D01*
X183273809Y-155261904D01*
X183178571Y-155214285D01*
X183130952Y-155166666D01*
X183083333Y-155071428D01*
X183083333Y-154880952D01*
X183130952Y-154785714D01*
X183178571Y-154738095D01*
X183273809Y-154690476D01*
%TO.C,D35*%
X164652380Y-152785714D02*
X163652380Y-152785714D01*
X163652380Y-153023809D01*
X163700000Y-153166666D01*
X163795238Y-153261904D01*
X163890476Y-153309523D01*
X164080952Y-153357142D01*
X164223809Y-153357142D01*
X164414285Y-153309523D01*
X164509523Y-153261904D01*
X164604761Y-153166666D01*
X164652380Y-153023809D01*
X164652380Y-152785714D01*
X163652380Y-153690476D02*
X163652380Y-154309523D01*
X164033333Y-153976190D01*
X164033333Y-154119047D01*
X164080952Y-154214285D01*
X164128571Y-154261904D01*
X164223809Y-154309523D01*
X164461904Y-154309523D01*
X164557142Y-154261904D01*
X164604761Y-154214285D01*
X164652380Y-154119047D01*
X164652380Y-153833333D01*
X164604761Y-153738095D01*
X164557142Y-153690476D01*
X163652380Y-155214285D02*
X163652380Y-154738095D01*
X164128571Y-154690476D01*
X164080952Y-154738095D01*
X164033333Y-154833333D01*
X164033333Y-155071428D01*
X164080952Y-155166666D01*
X164128571Y-155214285D01*
X164223809Y-155261904D01*
X164461904Y-155261904D01*
X164557142Y-155214285D01*
X164604761Y-155166666D01*
X164652380Y-155071428D01*
X164652380Y-154833333D01*
X164604761Y-154738095D01*
X164557142Y-154690476D01*
%TO.C,D34*%
X145602380Y-152785714D02*
X144602380Y-152785714D01*
X144602380Y-153023809D01*
X144650000Y-153166666D01*
X144745238Y-153261904D01*
X144840476Y-153309523D01*
X145030952Y-153357142D01*
X145173809Y-153357142D01*
X145364285Y-153309523D01*
X145459523Y-153261904D01*
X145554761Y-153166666D01*
X145602380Y-153023809D01*
X145602380Y-152785714D01*
X144602380Y-153690476D02*
X144602380Y-154309523D01*
X144983333Y-153976190D01*
X144983333Y-154119047D01*
X145030952Y-154214285D01*
X145078571Y-154261904D01*
X145173809Y-154309523D01*
X145411904Y-154309523D01*
X145507142Y-154261904D01*
X145554761Y-154214285D01*
X145602380Y-154119047D01*
X145602380Y-153833333D01*
X145554761Y-153738095D01*
X145507142Y-153690476D01*
X144935714Y-155166666D02*
X145602380Y-155166666D01*
X144554761Y-154928571D02*
X145269047Y-154690476D01*
X145269047Y-155309523D01*
%TO.C,D33*%
X126552380Y-152785714D02*
X125552380Y-152785714D01*
X125552380Y-153023809D01*
X125600000Y-153166666D01*
X125695238Y-153261904D01*
X125790476Y-153309523D01*
X125980952Y-153357142D01*
X126123809Y-153357142D01*
X126314285Y-153309523D01*
X126409523Y-153261904D01*
X126504761Y-153166666D01*
X126552380Y-153023809D01*
X126552380Y-152785714D01*
X125552380Y-153690476D02*
X125552380Y-154309523D01*
X125933333Y-153976190D01*
X125933333Y-154119047D01*
X125980952Y-154214285D01*
X126028571Y-154261904D01*
X126123809Y-154309523D01*
X126361904Y-154309523D01*
X126457142Y-154261904D01*
X126504761Y-154214285D01*
X126552380Y-154119047D01*
X126552380Y-153833333D01*
X126504761Y-153738095D01*
X126457142Y-153690476D01*
X125552380Y-154642857D02*
X125552380Y-155261904D01*
X125933333Y-154928571D01*
X125933333Y-155071428D01*
X125980952Y-155166666D01*
X126028571Y-155214285D01*
X126123809Y-155261904D01*
X126361904Y-155261904D01*
X126457142Y-155214285D01*
X126504761Y-155166666D01*
X126552380Y-155071428D01*
X126552380Y-154785714D01*
X126504761Y-154690476D01*
X126457142Y-154642857D01*
%TO.C,D32*%
X107502380Y-152785714D02*
X106502380Y-152785714D01*
X106502380Y-153023809D01*
X106550000Y-153166666D01*
X106645238Y-153261904D01*
X106740476Y-153309523D01*
X106930952Y-153357142D01*
X107073809Y-153357142D01*
X107264285Y-153309523D01*
X107359523Y-153261904D01*
X107454761Y-153166666D01*
X107502380Y-153023809D01*
X107502380Y-152785714D01*
X106502380Y-153690476D02*
X106502380Y-154309523D01*
X106883333Y-153976190D01*
X106883333Y-154119047D01*
X106930952Y-154214285D01*
X106978571Y-154261904D01*
X107073809Y-154309523D01*
X107311904Y-154309523D01*
X107407142Y-154261904D01*
X107454761Y-154214285D01*
X107502380Y-154119047D01*
X107502380Y-153833333D01*
X107454761Y-153738095D01*
X107407142Y-153690476D01*
X106597619Y-154690476D02*
X106550000Y-154738095D01*
X106502380Y-154833333D01*
X106502380Y-155071428D01*
X106550000Y-155166666D01*
X106597619Y-155214285D01*
X106692857Y-155261904D01*
X106788095Y-155261904D01*
X106930952Y-155214285D01*
X107502380Y-154642857D01*
X107502380Y-155261904D01*
%TO.C,D31*%
X88452380Y-152785714D02*
X87452380Y-152785714D01*
X87452380Y-153023809D01*
X87500000Y-153166666D01*
X87595238Y-153261904D01*
X87690476Y-153309523D01*
X87880952Y-153357142D01*
X88023809Y-153357142D01*
X88214285Y-153309523D01*
X88309523Y-153261904D01*
X88404761Y-153166666D01*
X88452380Y-153023809D01*
X88452380Y-152785714D01*
X87452380Y-153690476D02*
X87452380Y-154309523D01*
X87833333Y-153976190D01*
X87833333Y-154119047D01*
X87880952Y-154214285D01*
X87928571Y-154261904D01*
X88023809Y-154309523D01*
X88261904Y-154309523D01*
X88357142Y-154261904D01*
X88404761Y-154214285D01*
X88452380Y-154119047D01*
X88452380Y-153833333D01*
X88404761Y-153738095D01*
X88357142Y-153690476D01*
X88452380Y-155261904D02*
X88452380Y-154690476D01*
X88452380Y-154976190D02*
X87452380Y-154976190D01*
X87595238Y-154880952D01*
X87690476Y-154785714D01*
X87738095Y-154690476D01*
%TO.C,D30*%
X62452380Y-152785714D02*
X61452380Y-152785714D01*
X61452380Y-153023809D01*
X61500000Y-153166666D01*
X61595238Y-153261904D01*
X61690476Y-153309523D01*
X61880952Y-153357142D01*
X62023809Y-153357142D01*
X62214285Y-153309523D01*
X62309523Y-153261904D01*
X62404761Y-153166666D01*
X62452380Y-153023809D01*
X62452380Y-152785714D01*
X61452380Y-153690476D02*
X61452380Y-154309523D01*
X61833333Y-153976190D01*
X61833333Y-154119047D01*
X61880952Y-154214285D01*
X61928571Y-154261904D01*
X62023809Y-154309523D01*
X62261904Y-154309523D01*
X62357142Y-154261904D01*
X62404761Y-154214285D01*
X62452380Y-154119047D01*
X62452380Y-153833333D01*
X62404761Y-153738095D01*
X62357142Y-153690476D01*
X61452380Y-154928571D02*
X61452380Y-155023809D01*
X61500000Y-155119047D01*
X61547619Y-155166666D01*
X61642857Y-155214285D01*
X61833333Y-155261904D01*
X62071428Y-155261904D01*
X62261904Y-155214285D01*
X62357142Y-155166666D01*
X62404761Y-155119047D01*
X62452380Y-155023809D01*
X62452380Y-154928571D01*
X62404761Y-154833333D01*
X62357142Y-154785714D01*
X62261904Y-154738095D01*
X62071428Y-154690476D01*
X61833333Y-154690476D01*
X61642857Y-154738095D01*
X61547619Y-154785714D01*
X61500000Y-154833333D01*
X61452380Y-154928571D01*
%TO.C,D29*%
X303452380Y-133835714D02*
X302452380Y-133835714D01*
X302452380Y-134073809D01*
X302500000Y-134216666D01*
X302595238Y-134311904D01*
X302690476Y-134359523D01*
X302880952Y-134407142D01*
X303023809Y-134407142D01*
X303214285Y-134359523D01*
X303309523Y-134311904D01*
X303404761Y-134216666D01*
X303452380Y-134073809D01*
X303452380Y-133835714D01*
X302547619Y-134788095D02*
X302500000Y-134835714D01*
X302452380Y-134930952D01*
X302452380Y-135169047D01*
X302500000Y-135264285D01*
X302547619Y-135311904D01*
X302642857Y-135359523D01*
X302738095Y-135359523D01*
X302880952Y-135311904D01*
X303452380Y-134740476D01*
X303452380Y-135359523D01*
X303452380Y-135835714D02*
X303452380Y-136026190D01*
X303404761Y-136121428D01*
X303357142Y-136169047D01*
X303214285Y-136264285D01*
X303023809Y-136311904D01*
X302642857Y-136311904D01*
X302547619Y-136264285D01*
X302500000Y-136216666D01*
X302452380Y-136121428D01*
X302452380Y-135930952D01*
X302500000Y-135835714D01*
X302547619Y-135788095D01*
X302642857Y-135740476D01*
X302880952Y-135740476D01*
X302976190Y-135788095D01*
X303023809Y-135835714D01*
X303071428Y-135930952D01*
X303071428Y-136121428D01*
X303023809Y-136216666D01*
X302976190Y-136264285D01*
X302880952Y-136311904D01*
%TO.C,D28*%
X294002380Y-133835714D02*
X293002380Y-133835714D01*
X293002380Y-134073809D01*
X293050000Y-134216666D01*
X293145238Y-134311904D01*
X293240476Y-134359523D01*
X293430952Y-134407142D01*
X293573809Y-134407142D01*
X293764285Y-134359523D01*
X293859523Y-134311904D01*
X293954761Y-134216666D01*
X294002380Y-134073809D01*
X294002380Y-133835714D01*
X293097619Y-134788095D02*
X293050000Y-134835714D01*
X293002380Y-134930952D01*
X293002380Y-135169047D01*
X293050000Y-135264285D01*
X293097619Y-135311904D01*
X293192857Y-135359523D01*
X293288095Y-135359523D01*
X293430952Y-135311904D01*
X294002380Y-134740476D01*
X294002380Y-135359523D01*
X293430952Y-135930952D02*
X293383333Y-135835714D01*
X293335714Y-135788095D01*
X293240476Y-135740476D01*
X293192857Y-135740476D01*
X293097619Y-135788095D01*
X293050000Y-135835714D01*
X293002380Y-135930952D01*
X293002380Y-136121428D01*
X293050000Y-136216666D01*
X293097619Y-136264285D01*
X293192857Y-136311904D01*
X293240476Y-136311904D01*
X293335714Y-136264285D01*
X293383333Y-136216666D01*
X293430952Y-136121428D01*
X293430952Y-135930952D01*
X293478571Y-135835714D01*
X293526190Y-135788095D01*
X293621428Y-135740476D01*
X293811904Y-135740476D01*
X293907142Y-135788095D01*
X293954761Y-135835714D01*
X294002380Y-135930952D01*
X294002380Y-136121428D01*
X293954761Y-136216666D01*
X293907142Y-136264285D01*
X293811904Y-136311904D01*
X293621428Y-136311904D01*
X293526190Y-136264285D01*
X293478571Y-136216666D01*
X293430952Y-136121428D01*
%TO.C,D27*%
X274952380Y-133835714D02*
X273952380Y-133835714D01*
X273952380Y-134073809D01*
X274000000Y-134216666D01*
X274095238Y-134311904D01*
X274190476Y-134359523D01*
X274380952Y-134407142D01*
X274523809Y-134407142D01*
X274714285Y-134359523D01*
X274809523Y-134311904D01*
X274904761Y-134216666D01*
X274952380Y-134073809D01*
X274952380Y-133835714D01*
X274047619Y-134788095D02*
X274000000Y-134835714D01*
X273952380Y-134930952D01*
X273952380Y-135169047D01*
X274000000Y-135264285D01*
X274047619Y-135311904D01*
X274142857Y-135359523D01*
X274238095Y-135359523D01*
X274380952Y-135311904D01*
X274952380Y-134740476D01*
X274952380Y-135359523D01*
X273952380Y-135692857D02*
X273952380Y-136359523D01*
X274952380Y-135930952D01*
%TO.C,D26*%
X255902380Y-133835714D02*
X254902380Y-133835714D01*
X254902380Y-134073809D01*
X254950000Y-134216666D01*
X255045238Y-134311904D01*
X255140476Y-134359523D01*
X255330952Y-134407142D01*
X255473809Y-134407142D01*
X255664285Y-134359523D01*
X255759523Y-134311904D01*
X255854761Y-134216666D01*
X255902380Y-134073809D01*
X255902380Y-133835714D01*
X254997619Y-134788095D02*
X254950000Y-134835714D01*
X254902380Y-134930952D01*
X254902380Y-135169047D01*
X254950000Y-135264285D01*
X254997619Y-135311904D01*
X255092857Y-135359523D01*
X255188095Y-135359523D01*
X255330952Y-135311904D01*
X255902380Y-134740476D01*
X255902380Y-135359523D01*
X254902380Y-136216666D02*
X254902380Y-136026190D01*
X254950000Y-135930952D01*
X254997619Y-135883333D01*
X255140476Y-135788095D01*
X255330952Y-135740476D01*
X255711904Y-135740476D01*
X255807142Y-135788095D01*
X255854761Y-135835714D01*
X255902380Y-135930952D01*
X255902380Y-136121428D01*
X255854761Y-136216666D01*
X255807142Y-136264285D01*
X255711904Y-136311904D01*
X255473809Y-136311904D01*
X255378571Y-136264285D01*
X255330952Y-136216666D01*
X255283333Y-136121428D01*
X255283333Y-135930952D01*
X255330952Y-135835714D01*
X255378571Y-135788095D01*
X255473809Y-135740476D01*
%TO.C,D25*%
X236852380Y-133835714D02*
X235852380Y-133835714D01*
X235852380Y-134073809D01*
X235900000Y-134216666D01*
X235995238Y-134311904D01*
X236090476Y-134359523D01*
X236280952Y-134407142D01*
X236423809Y-134407142D01*
X236614285Y-134359523D01*
X236709523Y-134311904D01*
X236804761Y-134216666D01*
X236852380Y-134073809D01*
X236852380Y-133835714D01*
X235947619Y-134788095D02*
X235900000Y-134835714D01*
X235852380Y-134930952D01*
X235852380Y-135169047D01*
X235900000Y-135264285D01*
X235947619Y-135311904D01*
X236042857Y-135359523D01*
X236138095Y-135359523D01*
X236280952Y-135311904D01*
X236852380Y-134740476D01*
X236852380Y-135359523D01*
X235852380Y-136264285D02*
X235852380Y-135788095D01*
X236328571Y-135740476D01*
X236280952Y-135788095D01*
X236233333Y-135883333D01*
X236233333Y-136121428D01*
X236280952Y-136216666D01*
X236328571Y-136264285D01*
X236423809Y-136311904D01*
X236661904Y-136311904D01*
X236757142Y-136264285D01*
X236804761Y-136216666D01*
X236852380Y-136121428D01*
X236852380Y-135883333D01*
X236804761Y-135788095D01*
X236757142Y-135740476D01*
%TO.C,D24*%
X217802380Y-133835714D02*
X216802380Y-133835714D01*
X216802380Y-134073809D01*
X216850000Y-134216666D01*
X216945238Y-134311904D01*
X217040476Y-134359523D01*
X217230952Y-134407142D01*
X217373809Y-134407142D01*
X217564285Y-134359523D01*
X217659523Y-134311904D01*
X217754761Y-134216666D01*
X217802380Y-134073809D01*
X217802380Y-133835714D01*
X216897619Y-134788095D02*
X216850000Y-134835714D01*
X216802380Y-134930952D01*
X216802380Y-135169047D01*
X216850000Y-135264285D01*
X216897619Y-135311904D01*
X216992857Y-135359523D01*
X217088095Y-135359523D01*
X217230952Y-135311904D01*
X217802380Y-134740476D01*
X217802380Y-135359523D01*
X217135714Y-136216666D02*
X217802380Y-136216666D01*
X216754761Y-135978571D02*
X217469047Y-135740476D01*
X217469047Y-136359523D01*
%TO.C,D23*%
X198752380Y-133835714D02*
X197752380Y-133835714D01*
X197752380Y-134073809D01*
X197800000Y-134216666D01*
X197895238Y-134311904D01*
X197990476Y-134359523D01*
X198180952Y-134407142D01*
X198323809Y-134407142D01*
X198514285Y-134359523D01*
X198609523Y-134311904D01*
X198704761Y-134216666D01*
X198752380Y-134073809D01*
X198752380Y-133835714D01*
X197847619Y-134788095D02*
X197800000Y-134835714D01*
X197752380Y-134930952D01*
X197752380Y-135169047D01*
X197800000Y-135264285D01*
X197847619Y-135311904D01*
X197942857Y-135359523D01*
X198038095Y-135359523D01*
X198180952Y-135311904D01*
X198752380Y-134740476D01*
X198752380Y-135359523D01*
X197752380Y-135692857D02*
X197752380Y-136311904D01*
X198133333Y-135978571D01*
X198133333Y-136121428D01*
X198180952Y-136216666D01*
X198228571Y-136264285D01*
X198323809Y-136311904D01*
X198561904Y-136311904D01*
X198657142Y-136264285D01*
X198704761Y-136216666D01*
X198752380Y-136121428D01*
X198752380Y-135835714D01*
X198704761Y-135740476D01*
X198657142Y-135692857D01*
%TO.C,D22*%
X179702380Y-133835714D02*
X178702380Y-133835714D01*
X178702380Y-134073809D01*
X178750000Y-134216666D01*
X178845238Y-134311904D01*
X178940476Y-134359523D01*
X179130952Y-134407142D01*
X179273809Y-134407142D01*
X179464285Y-134359523D01*
X179559523Y-134311904D01*
X179654761Y-134216666D01*
X179702380Y-134073809D01*
X179702380Y-133835714D01*
X178797619Y-134788095D02*
X178750000Y-134835714D01*
X178702380Y-134930952D01*
X178702380Y-135169047D01*
X178750000Y-135264285D01*
X178797619Y-135311904D01*
X178892857Y-135359523D01*
X178988095Y-135359523D01*
X179130952Y-135311904D01*
X179702380Y-134740476D01*
X179702380Y-135359523D01*
X178797619Y-135740476D02*
X178750000Y-135788095D01*
X178702380Y-135883333D01*
X178702380Y-136121428D01*
X178750000Y-136216666D01*
X178797619Y-136264285D01*
X178892857Y-136311904D01*
X178988095Y-136311904D01*
X179130952Y-136264285D01*
X179702380Y-135692857D01*
X179702380Y-136311904D01*
%TO.C,D21*%
X160652380Y-133835714D02*
X159652380Y-133835714D01*
X159652380Y-134073809D01*
X159700000Y-134216666D01*
X159795238Y-134311904D01*
X159890476Y-134359523D01*
X160080952Y-134407142D01*
X160223809Y-134407142D01*
X160414285Y-134359523D01*
X160509523Y-134311904D01*
X160604761Y-134216666D01*
X160652380Y-134073809D01*
X160652380Y-133835714D01*
X159747619Y-134788095D02*
X159700000Y-134835714D01*
X159652380Y-134930952D01*
X159652380Y-135169047D01*
X159700000Y-135264285D01*
X159747619Y-135311904D01*
X159842857Y-135359523D01*
X159938095Y-135359523D01*
X160080952Y-135311904D01*
X160652380Y-134740476D01*
X160652380Y-135359523D01*
X160652380Y-136311904D02*
X160652380Y-135740476D01*
X160652380Y-136026190D02*
X159652380Y-136026190D01*
X159795238Y-135930952D01*
X159890476Y-135835714D01*
X159938095Y-135740476D01*
%TO.C,D20*%
X141602380Y-133835714D02*
X140602380Y-133835714D01*
X140602380Y-134073809D01*
X140650000Y-134216666D01*
X140745238Y-134311904D01*
X140840476Y-134359523D01*
X141030952Y-134407142D01*
X141173809Y-134407142D01*
X141364285Y-134359523D01*
X141459523Y-134311904D01*
X141554761Y-134216666D01*
X141602380Y-134073809D01*
X141602380Y-133835714D01*
X140697619Y-134788095D02*
X140650000Y-134835714D01*
X140602380Y-134930952D01*
X140602380Y-135169047D01*
X140650000Y-135264285D01*
X140697619Y-135311904D01*
X140792857Y-135359523D01*
X140888095Y-135359523D01*
X141030952Y-135311904D01*
X141602380Y-134740476D01*
X141602380Y-135359523D01*
X140602380Y-135978571D02*
X140602380Y-136073809D01*
X140650000Y-136169047D01*
X140697619Y-136216666D01*
X140792857Y-136264285D01*
X140983333Y-136311904D01*
X141221428Y-136311904D01*
X141411904Y-136264285D01*
X141507142Y-136216666D01*
X141554761Y-136169047D01*
X141602380Y-136073809D01*
X141602380Y-135978571D01*
X141554761Y-135883333D01*
X141507142Y-135835714D01*
X141411904Y-135788095D01*
X141221428Y-135740476D01*
X140983333Y-135740476D01*
X140792857Y-135788095D01*
X140697619Y-135835714D01*
X140650000Y-135883333D01*
X140602380Y-135978571D01*
%TO.C,D19*%
X122552380Y-133835714D02*
X121552380Y-133835714D01*
X121552380Y-134073809D01*
X121600000Y-134216666D01*
X121695238Y-134311904D01*
X121790476Y-134359523D01*
X121980952Y-134407142D01*
X122123809Y-134407142D01*
X122314285Y-134359523D01*
X122409523Y-134311904D01*
X122504761Y-134216666D01*
X122552380Y-134073809D01*
X122552380Y-133835714D01*
X122552380Y-135359523D02*
X122552380Y-134788095D01*
X122552380Y-135073809D02*
X121552380Y-135073809D01*
X121695238Y-134978571D01*
X121790476Y-134883333D01*
X121838095Y-134788095D01*
X122552380Y-135835714D02*
X122552380Y-136026190D01*
X122504761Y-136121428D01*
X122457142Y-136169047D01*
X122314285Y-136264285D01*
X122123809Y-136311904D01*
X121742857Y-136311904D01*
X121647619Y-136264285D01*
X121600000Y-136216666D01*
X121552380Y-136121428D01*
X121552380Y-135930952D01*
X121600000Y-135835714D01*
X121647619Y-135788095D01*
X121742857Y-135740476D01*
X121980952Y-135740476D01*
X122076190Y-135788095D01*
X122123809Y-135835714D01*
X122171428Y-135930952D01*
X122171428Y-136121428D01*
X122123809Y-136216666D01*
X122076190Y-136264285D01*
X121980952Y-136311904D01*
%TO.C,D18*%
X103502380Y-133835714D02*
X102502380Y-133835714D01*
X102502380Y-134073809D01*
X102550000Y-134216666D01*
X102645238Y-134311904D01*
X102740476Y-134359523D01*
X102930952Y-134407142D01*
X103073809Y-134407142D01*
X103264285Y-134359523D01*
X103359523Y-134311904D01*
X103454761Y-134216666D01*
X103502380Y-134073809D01*
X103502380Y-133835714D01*
X103502380Y-135359523D02*
X103502380Y-134788095D01*
X103502380Y-135073809D02*
X102502380Y-135073809D01*
X102645238Y-134978571D01*
X102740476Y-134883333D01*
X102788095Y-134788095D01*
X102930952Y-135930952D02*
X102883333Y-135835714D01*
X102835714Y-135788095D01*
X102740476Y-135740476D01*
X102692857Y-135740476D01*
X102597619Y-135788095D01*
X102550000Y-135835714D01*
X102502380Y-135930952D01*
X102502380Y-136121428D01*
X102550000Y-136216666D01*
X102597619Y-136264285D01*
X102692857Y-136311904D01*
X102740476Y-136311904D01*
X102835714Y-136264285D01*
X102883333Y-136216666D01*
X102930952Y-136121428D01*
X102930952Y-135930952D01*
X102978571Y-135835714D01*
X103026190Y-135788095D01*
X103121428Y-135740476D01*
X103311904Y-135740476D01*
X103407142Y-135788095D01*
X103454761Y-135835714D01*
X103502380Y-135930952D01*
X103502380Y-136121428D01*
X103454761Y-136216666D01*
X103407142Y-136264285D01*
X103311904Y-136311904D01*
X103121428Y-136311904D01*
X103026190Y-136264285D01*
X102978571Y-136216666D01*
X102930952Y-136121428D01*
%TO.C,D17*%
X84452380Y-133835714D02*
X83452380Y-133835714D01*
X83452380Y-134073809D01*
X83500000Y-134216666D01*
X83595238Y-134311904D01*
X83690476Y-134359523D01*
X83880952Y-134407142D01*
X84023809Y-134407142D01*
X84214285Y-134359523D01*
X84309523Y-134311904D01*
X84404761Y-134216666D01*
X84452380Y-134073809D01*
X84452380Y-133835714D01*
X84452380Y-135359523D02*
X84452380Y-134788095D01*
X84452380Y-135073809D02*
X83452380Y-135073809D01*
X83595238Y-134978571D01*
X83690476Y-134883333D01*
X83738095Y-134788095D01*
X83452380Y-135692857D02*
X83452380Y-136359523D01*
X84452380Y-135930952D01*
%TO.C,D16*%
X60452380Y-133835714D02*
X59452380Y-133835714D01*
X59452380Y-134073809D01*
X59500000Y-134216666D01*
X59595238Y-134311904D01*
X59690476Y-134359523D01*
X59880952Y-134407142D01*
X60023809Y-134407142D01*
X60214285Y-134359523D01*
X60309523Y-134311904D01*
X60404761Y-134216666D01*
X60452380Y-134073809D01*
X60452380Y-133835714D01*
X60452380Y-135359523D02*
X60452380Y-134788095D01*
X60452380Y-135073809D02*
X59452380Y-135073809D01*
X59595238Y-134978571D01*
X59690476Y-134883333D01*
X59738095Y-134788095D01*
X59452380Y-136216666D02*
X59452380Y-136026190D01*
X59500000Y-135930952D01*
X59547619Y-135883333D01*
X59690476Y-135788095D01*
X59880952Y-135740476D01*
X60261904Y-135740476D01*
X60357142Y-135788095D01*
X60404761Y-135835714D01*
X60452380Y-135930952D01*
X60452380Y-136121428D01*
X60404761Y-136216666D01*
X60357142Y-136264285D01*
X60261904Y-136311904D01*
X60023809Y-136311904D01*
X59928571Y-136264285D01*
X59880952Y-136216666D01*
X59833333Y-136121428D01*
X59833333Y-135930952D01*
X59880952Y-135835714D01*
X59928571Y-135788095D01*
X60023809Y-135740476D01*
%TO.C,D15*%
X315452380Y-114785714D02*
X314452380Y-114785714D01*
X314452380Y-115023809D01*
X314500000Y-115166666D01*
X314595238Y-115261904D01*
X314690476Y-115309523D01*
X314880952Y-115357142D01*
X315023809Y-115357142D01*
X315214285Y-115309523D01*
X315309523Y-115261904D01*
X315404761Y-115166666D01*
X315452380Y-115023809D01*
X315452380Y-114785714D01*
X315452380Y-116309523D02*
X315452380Y-115738095D01*
X315452380Y-116023809D02*
X314452380Y-116023809D01*
X314595238Y-115928571D01*
X314690476Y-115833333D01*
X314738095Y-115738095D01*
X314452380Y-117214285D02*
X314452380Y-116738095D01*
X314928571Y-116690476D01*
X314880952Y-116738095D01*
X314833333Y-116833333D01*
X314833333Y-117071428D01*
X314880952Y-117166666D01*
X314928571Y-117214285D01*
X315023809Y-117261904D01*
X315261904Y-117261904D01*
X315357142Y-117214285D01*
X315404761Y-117166666D01*
X315452380Y-117071428D01*
X315452380Y-116833333D01*
X315404761Y-116738095D01*
X315357142Y-116690476D01*
%TO.C,D14*%
X303102380Y-114785714D02*
X302102380Y-114785714D01*
X302102380Y-115023809D01*
X302150000Y-115166666D01*
X302245238Y-115261904D01*
X302340476Y-115309523D01*
X302530952Y-115357142D01*
X302673809Y-115357142D01*
X302864285Y-115309523D01*
X302959523Y-115261904D01*
X303054761Y-115166666D01*
X303102380Y-115023809D01*
X303102380Y-114785714D01*
X303102380Y-116309523D02*
X303102380Y-115738095D01*
X303102380Y-116023809D02*
X302102380Y-116023809D01*
X302245238Y-115928571D01*
X302340476Y-115833333D01*
X302388095Y-115738095D01*
X302435714Y-117166666D02*
X303102380Y-117166666D01*
X302054761Y-116928571D02*
X302769047Y-116690476D01*
X302769047Y-117309523D01*
%TO.C,D13*%
X284052380Y-114785714D02*
X283052380Y-114785714D01*
X283052380Y-115023809D01*
X283100000Y-115166666D01*
X283195238Y-115261904D01*
X283290476Y-115309523D01*
X283480952Y-115357142D01*
X283623809Y-115357142D01*
X283814285Y-115309523D01*
X283909523Y-115261904D01*
X284004761Y-115166666D01*
X284052380Y-115023809D01*
X284052380Y-114785714D01*
X284052380Y-116309523D02*
X284052380Y-115738095D01*
X284052380Y-116023809D02*
X283052380Y-116023809D01*
X283195238Y-115928571D01*
X283290476Y-115833333D01*
X283338095Y-115738095D01*
X283052380Y-116642857D02*
X283052380Y-117261904D01*
X283433333Y-116928571D01*
X283433333Y-117071428D01*
X283480952Y-117166666D01*
X283528571Y-117214285D01*
X283623809Y-117261904D01*
X283861904Y-117261904D01*
X283957142Y-117214285D01*
X284004761Y-117166666D01*
X284052380Y-117071428D01*
X284052380Y-116785714D01*
X284004761Y-116690476D01*
X283957142Y-116642857D01*
%TO.C,D12*%
X265002380Y-114785714D02*
X264002380Y-114785714D01*
X264002380Y-115023809D01*
X264050000Y-115166666D01*
X264145238Y-115261904D01*
X264240476Y-115309523D01*
X264430952Y-115357142D01*
X264573809Y-115357142D01*
X264764285Y-115309523D01*
X264859523Y-115261904D01*
X264954761Y-115166666D01*
X265002380Y-115023809D01*
X265002380Y-114785714D01*
X265002380Y-116309523D02*
X265002380Y-115738095D01*
X265002380Y-116023809D02*
X264002380Y-116023809D01*
X264145238Y-115928571D01*
X264240476Y-115833333D01*
X264288095Y-115738095D01*
X264097619Y-116690476D02*
X264050000Y-116738095D01*
X264002380Y-116833333D01*
X264002380Y-117071428D01*
X264050000Y-117166666D01*
X264097619Y-117214285D01*
X264192857Y-117261904D01*
X264288095Y-117261904D01*
X264430952Y-117214285D01*
X265002380Y-116642857D01*
X265002380Y-117261904D01*
%TO.C,D11*%
X245952380Y-114785714D02*
X244952380Y-114785714D01*
X244952380Y-115023809D01*
X245000000Y-115166666D01*
X245095238Y-115261904D01*
X245190476Y-115309523D01*
X245380952Y-115357142D01*
X245523809Y-115357142D01*
X245714285Y-115309523D01*
X245809523Y-115261904D01*
X245904761Y-115166666D01*
X245952380Y-115023809D01*
X245952380Y-114785714D01*
X245952380Y-116309523D02*
X245952380Y-115738095D01*
X245952380Y-116023809D02*
X244952380Y-116023809D01*
X245095238Y-115928571D01*
X245190476Y-115833333D01*
X245238095Y-115738095D01*
X245952380Y-117261904D02*
X245952380Y-116690476D01*
X245952380Y-116976190D02*
X244952380Y-116976190D01*
X245095238Y-116880952D01*
X245190476Y-116785714D01*
X245238095Y-116690476D01*
%TO.C,D10*%
X226902380Y-114785714D02*
X225902380Y-114785714D01*
X225902380Y-115023809D01*
X225950000Y-115166666D01*
X226045238Y-115261904D01*
X226140476Y-115309523D01*
X226330952Y-115357142D01*
X226473809Y-115357142D01*
X226664285Y-115309523D01*
X226759523Y-115261904D01*
X226854761Y-115166666D01*
X226902380Y-115023809D01*
X226902380Y-114785714D01*
X226902380Y-116309523D02*
X226902380Y-115738095D01*
X226902380Y-116023809D02*
X225902380Y-116023809D01*
X226045238Y-115928571D01*
X226140476Y-115833333D01*
X226188095Y-115738095D01*
X225902380Y-116928571D02*
X225902380Y-117023809D01*
X225950000Y-117119047D01*
X225997619Y-117166666D01*
X226092857Y-117214285D01*
X226283333Y-117261904D01*
X226521428Y-117261904D01*
X226711904Y-117214285D01*
X226807142Y-117166666D01*
X226854761Y-117119047D01*
X226902380Y-117023809D01*
X226902380Y-116928571D01*
X226854761Y-116833333D01*
X226807142Y-116785714D01*
X226711904Y-116738095D01*
X226521428Y-116690476D01*
X226283333Y-116690476D01*
X226092857Y-116738095D01*
X225997619Y-116785714D01*
X225950000Y-116833333D01*
X225902380Y-116928571D01*
%TO.C,D9*%
X207852380Y-115261904D02*
X206852380Y-115261904D01*
X206852380Y-115500000D01*
X206900000Y-115642857D01*
X206995238Y-115738095D01*
X207090476Y-115785714D01*
X207280952Y-115833333D01*
X207423809Y-115833333D01*
X207614285Y-115785714D01*
X207709523Y-115738095D01*
X207804761Y-115642857D01*
X207852380Y-115500000D01*
X207852380Y-115261904D01*
X207852380Y-116309523D02*
X207852380Y-116500000D01*
X207804761Y-116595238D01*
X207757142Y-116642857D01*
X207614285Y-116738095D01*
X207423809Y-116785714D01*
X207042857Y-116785714D01*
X206947619Y-116738095D01*
X206900000Y-116690476D01*
X206852380Y-116595238D01*
X206852380Y-116404761D01*
X206900000Y-116309523D01*
X206947619Y-116261904D01*
X207042857Y-116214285D01*
X207280952Y-116214285D01*
X207376190Y-116261904D01*
X207423809Y-116309523D01*
X207471428Y-116404761D01*
X207471428Y-116595238D01*
X207423809Y-116690476D01*
X207376190Y-116738095D01*
X207280952Y-116785714D01*
%TO.C,D8*%
X188802380Y-115261904D02*
X187802380Y-115261904D01*
X187802380Y-115500000D01*
X187850000Y-115642857D01*
X187945238Y-115738095D01*
X188040476Y-115785714D01*
X188230952Y-115833333D01*
X188373809Y-115833333D01*
X188564285Y-115785714D01*
X188659523Y-115738095D01*
X188754761Y-115642857D01*
X188802380Y-115500000D01*
X188802380Y-115261904D01*
X188230952Y-116404761D02*
X188183333Y-116309523D01*
X188135714Y-116261904D01*
X188040476Y-116214285D01*
X187992857Y-116214285D01*
X187897619Y-116261904D01*
X187850000Y-116309523D01*
X187802380Y-116404761D01*
X187802380Y-116595238D01*
X187850000Y-116690476D01*
X187897619Y-116738095D01*
X187992857Y-116785714D01*
X188040476Y-116785714D01*
X188135714Y-116738095D01*
X188183333Y-116690476D01*
X188230952Y-116595238D01*
X188230952Y-116404761D01*
X188278571Y-116309523D01*
X188326190Y-116261904D01*
X188421428Y-116214285D01*
X188611904Y-116214285D01*
X188707142Y-116261904D01*
X188754761Y-116309523D01*
X188802380Y-116404761D01*
X188802380Y-116595238D01*
X188754761Y-116690476D01*
X188707142Y-116738095D01*
X188611904Y-116785714D01*
X188421428Y-116785714D01*
X188326190Y-116738095D01*
X188278571Y-116690476D01*
X188230952Y-116595238D01*
%TO.C,D7*%
X169752380Y-115261904D02*
X168752380Y-115261904D01*
X168752380Y-115500000D01*
X168800000Y-115642857D01*
X168895238Y-115738095D01*
X168990476Y-115785714D01*
X169180952Y-115833333D01*
X169323809Y-115833333D01*
X169514285Y-115785714D01*
X169609523Y-115738095D01*
X169704761Y-115642857D01*
X169752380Y-115500000D01*
X169752380Y-115261904D01*
X168752380Y-116166666D02*
X168752380Y-116833333D01*
X169752380Y-116404761D01*
%TO.C,D6*%
X150702380Y-115261904D02*
X149702380Y-115261904D01*
X149702380Y-115500000D01*
X149750000Y-115642857D01*
X149845238Y-115738095D01*
X149940476Y-115785714D01*
X150130952Y-115833333D01*
X150273809Y-115833333D01*
X150464285Y-115785714D01*
X150559523Y-115738095D01*
X150654761Y-115642857D01*
X150702380Y-115500000D01*
X150702380Y-115261904D01*
X149702380Y-116690476D02*
X149702380Y-116500000D01*
X149750000Y-116404761D01*
X149797619Y-116357142D01*
X149940476Y-116261904D01*
X150130952Y-116214285D01*
X150511904Y-116214285D01*
X150607142Y-116261904D01*
X150654761Y-116309523D01*
X150702380Y-116404761D01*
X150702380Y-116595238D01*
X150654761Y-116690476D01*
X150607142Y-116738095D01*
X150511904Y-116785714D01*
X150273809Y-116785714D01*
X150178571Y-116738095D01*
X150130952Y-116690476D01*
X150083333Y-116595238D01*
X150083333Y-116404761D01*
X150130952Y-116309523D01*
X150178571Y-116261904D01*
X150273809Y-116214285D01*
%TO.C,D5*%
X131652380Y-115261904D02*
X130652380Y-115261904D01*
X130652380Y-115500000D01*
X130700000Y-115642857D01*
X130795238Y-115738095D01*
X130890476Y-115785714D01*
X131080952Y-115833333D01*
X131223809Y-115833333D01*
X131414285Y-115785714D01*
X131509523Y-115738095D01*
X131604761Y-115642857D01*
X131652380Y-115500000D01*
X131652380Y-115261904D01*
X130652380Y-116738095D02*
X130652380Y-116261904D01*
X131128571Y-116214285D01*
X131080952Y-116261904D01*
X131033333Y-116357142D01*
X131033333Y-116595238D01*
X131080952Y-116690476D01*
X131128571Y-116738095D01*
X131223809Y-116785714D01*
X131461904Y-116785714D01*
X131557142Y-116738095D01*
X131604761Y-116690476D01*
X131652380Y-116595238D01*
X131652380Y-116357142D01*
X131604761Y-116261904D01*
X131557142Y-116214285D01*
%TO.C,D4*%
X112602380Y-115261904D02*
X111602380Y-115261904D01*
X111602380Y-115500000D01*
X111650000Y-115642857D01*
X111745238Y-115738095D01*
X111840476Y-115785714D01*
X112030952Y-115833333D01*
X112173809Y-115833333D01*
X112364285Y-115785714D01*
X112459523Y-115738095D01*
X112554761Y-115642857D01*
X112602380Y-115500000D01*
X112602380Y-115261904D01*
X111935714Y-116690476D02*
X112602380Y-116690476D01*
X111554761Y-116452380D02*
X112269047Y-116214285D01*
X112269047Y-116833333D01*
%TO.C,D3*%
X93552380Y-115261904D02*
X92552380Y-115261904D01*
X92552380Y-115500000D01*
X92600000Y-115642857D01*
X92695238Y-115738095D01*
X92790476Y-115785714D01*
X92980952Y-115833333D01*
X93123809Y-115833333D01*
X93314285Y-115785714D01*
X93409523Y-115738095D01*
X93504761Y-115642857D01*
X93552380Y-115500000D01*
X93552380Y-115261904D01*
X92552380Y-116166666D02*
X92552380Y-116785714D01*
X92933333Y-116452380D01*
X92933333Y-116595238D01*
X92980952Y-116690476D01*
X93028571Y-116738095D01*
X93123809Y-116785714D01*
X93361904Y-116785714D01*
X93457142Y-116738095D01*
X93504761Y-116690476D01*
X93552380Y-116595238D01*
X93552380Y-116309523D01*
X93504761Y-116214285D01*
X93457142Y-116166666D01*
%TO.C,D2*%
X74502380Y-115261904D02*
X73502380Y-115261904D01*
X73502380Y-115500000D01*
X73550000Y-115642857D01*
X73645238Y-115738095D01*
X73740476Y-115785714D01*
X73930952Y-115833333D01*
X74073809Y-115833333D01*
X74264285Y-115785714D01*
X74359523Y-115738095D01*
X74454761Y-115642857D01*
X74502380Y-115500000D01*
X74502380Y-115261904D01*
X73597619Y-116214285D02*
X73550000Y-116261904D01*
X73502380Y-116357142D01*
X73502380Y-116595238D01*
X73550000Y-116690476D01*
X73597619Y-116738095D01*
X73692857Y-116785714D01*
X73788095Y-116785714D01*
X73930952Y-116738095D01*
X74502380Y-116166666D01*
X74502380Y-116785714D01*
%TO.C,D1*%
X55452380Y-115261904D02*
X54452380Y-115261904D01*
X54452380Y-115500000D01*
X54500000Y-115642857D01*
X54595238Y-115738095D01*
X54690476Y-115785714D01*
X54880952Y-115833333D01*
X55023809Y-115833333D01*
X55214285Y-115785714D01*
X55309523Y-115738095D01*
X55404761Y-115642857D01*
X55452380Y-115500000D01*
X55452380Y-115261904D01*
X55452380Y-116785714D02*
X55452380Y-116214285D01*
X55452380Y-116500000D02*
X54452380Y-116500000D01*
X54595238Y-116404761D01*
X54690476Y-116309523D01*
X54738095Y-116214285D01*
%TD*%
M02*
