%TF.GenerationSoftware,KiCad,Pcbnew,(5.1.6)-1*%
%TF.CreationDate,2020-11-16T00:09:50-08:00*%
%TF.ProjectId,Wireless-Keyboard,57697265-6c65-4737-932d-4b6579626f61,rev?*%
%TF.SameCoordinates,Original*%
%TF.FileFunction,Legend,Top*%
%TF.FilePolarity,Positive*%
%FSLAX46Y46*%
G04 Gerber Fmt 4.6, Leading zero omitted, Abs format (unit mm)*
G04 Created by KiCad (PCBNEW (5.1.6)-1) date 2020-11-16 00:09:50*
%MOMM*%
%LPD*%
G01*
G04 APERTURE LIST*
%ADD10C,0.100000*%
%ADD11C,0.127000*%
%ADD12C,0.150000*%
G04 APERTURE END LIST*
D10*
%TO.C,MS1*%
X43540000Y-99000000D02*
G75*
G03*
X41000000Y-101540000I0J-2540000D01*
G01*
X63860000Y-101540000D02*
G75*
G03*
X61320000Y-99000000I-2540000J0D01*
G01*
X61320000Y-149800000D02*
G75*
G03*
X63860000Y-147260000I0J2540000D01*
G01*
X41000000Y-147260000D02*
G75*
G03*
X43540000Y-149800000I2540000J0D01*
G01*
D11*
X42270000Y-147260000D02*
X44810000Y-147260000D01*
X43540000Y-145990000D02*
X43540000Y-148530000D01*
X44438026Y-147260000D02*
G75*
G03*
X44438026Y-147260000I-898026J0D01*
G01*
X60050000Y-147260000D02*
X62590000Y-147260000D01*
X61320000Y-145990000D02*
X61320000Y-148530000D01*
X62218026Y-147260000D02*
G75*
G03*
X62218026Y-147260000I-898026J0D01*
G01*
D10*
X61320000Y-99000000D02*
X43540000Y-99000000D01*
X63860000Y-147260000D02*
X63860000Y-101540000D01*
X43540000Y-149800000D02*
X61320000Y-149800000D01*
X41000000Y-101540000D02*
X41000000Y-147260000D01*
D12*
X41574523Y-100632857D02*
X40304523Y-100632857D01*
X41211666Y-100209523D01*
X40304523Y-99786190D01*
X41574523Y-99786190D01*
X41514047Y-99241904D02*
X41574523Y-99060476D01*
X41574523Y-98758095D01*
X41514047Y-98637142D01*
X41453571Y-98576666D01*
X41332619Y-98516190D01*
X41211666Y-98516190D01*
X41090714Y-98576666D01*
X41030238Y-98637142D01*
X40969761Y-98758095D01*
X40909285Y-99000000D01*
X40848809Y-99120952D01*
X40788333Y-99181428D01*
X40667380Y-99241904D01*
X40546428Y-99241904D01*
X40425476Y-99181428D01*
X40365000Y-99120952D01*
X40304523Y-99000000D01*
X40304523Y-98697619D01*
X40365000Y-98516190D01*
X41574523Y-97306666D02*
X41574523Y-98032380D01*
X41574523Y-97669523D02*
X40304523Y-97669523D01*
X40485952Y-97790476D01*
X40606904Y-97911428D01*
X40667380Y-98032380D01*
X40909285Y-104624285D02*
X40909285Y-105047619D01*
X41574523Y-105047619D02*
X40304523Y-105047619D01*
X40304523Y-104442857D01*
X40909285Y-103959047D02*
X40909285Y-103535714D01*
X41574523Y-103354285D02*
X41574523Y-103959047D01*
X40304523Y-103959047D01*
X40304523Y-103354285D01*
X41211666Y-102870476D02*
X41211666Y-102265714D01*
X41574523Y-102991428D02*
X40304523Y-102568095D01*
X41574523Y-102144761D01*
X40304523Y-101902857D02*
X40304523Y-101177142D01*
X41574523Y-101540000D02*
X40304523Y-101540000D01*
X41574523Y-100753809D02*
X40304523Y-100753809D01*
X40909285Y-100753809D02*
X40909285Y-100028095D01*
X41574523Y-100028095D02*
X40304523Y-100028095D01*
X40909285Y-99423333D02*
X40909285Y-99000000D01*
X41574523Y-98818571D02*
X41574523Y-99423333D01*
X40304523Y-99423333D01*
X40304523Y-98818571D01*
X41574523Y-97548571D02*
X40969761Y-97971904D01*
X41574523Y-98274285D02*
X40304523Y-98274285D01*
X40304523Y-97790476D01*
X40365000Y-97669523D01*
X40425476Y-97609047D01*
X40546428Y-97548571D01*
X40727857Y-97548571D01*
X40848809Y-97609047D01*
X40909285Y-97669523D01*
X40969761Y-97790476D01*
X40969761Y-98274285D01*
X40304523Y-97125238D02*
X41574523Y-96822857D01*
X40667380Y-96580952D01*
X41574523Y-96339047D01*
X40304523Y-96036666D01*
X41574523Y-95552857D02*
X40304523Y-95552857D01*
X41574523Y-94948095D02*
X40304523Y-94948095D01*
X41574523Y-94222380D01*
X40304523Y-94222380D01*
X40365000Y-92952380D02*
X40304523Y-93073333D01*
X40304523Y-93254761D01*
X40365000Y-93436190D01*
X40485952Y-93557142D01*
X40606904Y-93617619D01*
X40848809Y-93678095D01*
X41030238Y-93678095D01*
X41272142Y-93617619D01*
X41393095Y-93557142D01*
X41514047Y-93436190D01*
X41574523Y-93254761D01*
X41574523Y-93133809D01*
X41514047Y-92952380D01*
X41453571Y-92891904D01*
X41030238Y-92891904D01*
X41030238Y-93133809D01*
%TD*%
M02*
