%TF.GenerationSoftware,KiCad,Pcbnew,(5.1.6)-1*%
%TF.CreationDate,2020-11-16T00:09:50-08:00*%
%TF.ProjectId,Wireless-Keyboard,57697265-6c65-4737-932d-4b6579626f61,rev?*%
%TF.SameCoordinates,Original*%
%TF.FileFunction,Copper,L2,Bot*%
%TF.FilePolarity,Positive*%
%FSLAX46Y46*%
G04 Gerber Fmt 4.6, Leading zero omitted, Abs format (unit mm)*
G04 Created by KiCad (PCBNEW (5.1.6)-1) date 2020-11-16 00:09:50*
%MOMM*%
%LPD*%
G01*
G04 APERTURE LIST*
%TA.AperFunction,SMDPad,CuDef*%
%ADD10R,1.800000X1.100000*%
%TD*%
%TA.AperFunction,ComponentPad*%
%ADD11C,3.810000*%
%TD*%
%TA.AperFunction,ComponentPad*%
%ADD12C,1.778000*%
%TD*%
%TA.AperFunction,ComponentPad*%
%ADD13C,2.250000*%
%TD*%
%TA.AperFunction,SMDPad,CuDef*%
%ADD14R,1.200000X0.900000*%
%TD*%
%TA.AperFunction,ViaPad*%
%ADD15C,0.800000*%
%TD*%
%TA.AperFunction,Conductor*%
%ADD16C,0.200000*%
%TD*%
G04 APERTURE END LIST*
D10*
%TO.P,SW1,4*%
%TO.N,N/C*%
X81100000Y-105850000D03*
%TO.P,SW1,3*%
X74900000Y-102150000D03*
%TO.P,SW1,2*%
%TO.N,Net-(MS1-Pad1)*%
X81100000Y-102150000D03*
%TO.P,SW1,1*%
%TO.N,GND*%
X74900000Y-105850000D03*
%TD*%
D11*
%TO.P,MS1,P$2*%
%TO.N,N/C*%
X43540000Y-101540000D03*
%TO.P,MS1,P$1*%
X61320000Y-101540000D03*
D12*
%TO.P,MS1,28*%
%TO.N,Net-(MS1-Pad28)*%
X62590000Y-115510000D03*
%TO.P,MS1,27*%
%TO.N,Net-(MS1-Pad27)*%
X62590000Y-118050000D03*
%TO.P,MS1,26*%
%TO.N,Net-(MS1-Pad26)*%
X62590000Y-120590000D03*
%TO.P,MS1,25*%
%TO.N,COL14*%
X62590000Y-123130000D03*
%TO.P,MS1,24*%
%TO.N,COL13*%
X62590000Y-125670000D03*
%TO.P,MS1,23*%
%TO.N,COL12*%
X62590000Y-128210000D03*
%TO.P,MS1,22*%
%TO.N,COL11*%
X62590000Y-130750000D03*
%TO.P,MS1,21*%
%TO.N,COL10*%
X62590000Y-133290000D03*
%TO.P,MS1,20*%
%TO.N,COL9*%
X62590000Y-135830000D03*
%TO.P,MS1,19*%
%TO.N,COL8*%
X62590000Y-138370000D03*
%TO.P,MS1,18*%
%TO.N,COL7*%
X62590000Y-140910000D03*
%TO.P,MS1,17*%
%TO.N,COL6*%
X62590000Y-143450000D03*
%TO.P,MS1,16*%
%TO.N,Net-(MS1-Pad16)*%
X42270000Y-143450000D03*
%TO.P,MS1,15*%
%TO.N,COL4*%
X42270000Y-140910000D03*
%TO.P,MS1,14*%
%TO.N,COL5*%
X42270000Y-138370000D03*
%TO.P,MS1,13*%
%TO.N,COL3*%
X42270000Y-135830000D03*
%TO.P,MS1,12*%
%TO.N,COL2*%
X42270000Y-133290000D03*
%TO.P,MS1,11*%
%TO.N,COL1*%
X42270000Y-130750000D03*
%TO.P,MS1,10*%
%TO.N,ROW4*%
X42270000Y-128210000D03*
%TO.P,MS1,9*%
%TO.N,ROW3*%
X42270000Y-125670000D03*
%TO.P,MS1,8*%
%TO.N,ROW2*%
X42270000Y-123130000D03*
%TO.P,MS1,7*%
%TO.N,ROW1*%
X42270000Y-120590000D03*
%TO.P,MS1,6*%
%TO.N,ROW0*%
X42270000Y-118050000D03*
%TO.P,MS1,5*%
%TO.N,COL0*%
X42270000Y-115510000D03*
%TO.P,MS1,4*%
%TO.N,GND*%
X42270000Y-112970000D03*
%TO.P,MS1,3*%
%TO.N,Net-(MS1-Pad3)*%
X42270000Y-110430000D03*
%TO.P,MS1,2*%
%TO.N,Net-(MS1-Pad2)*%
X42270000Y-107890000D03*
%TO.P,MS1,1*%
%TO.N,Net-(MS1-Pad1)*%
X42270000Y-105350000D03*
%TD*%
D13*
%TO.P,MX66,2*%
%TO.N,Net-(D61-Pad2)*%
X173840000Y-181120000D03*
%TO.P,MX66,1*%
%TO.N,COL6*%
X167490000Y-183660000D03*
%TD*%
%TO.P,MX69,2*%
%TO.N,Net-(D64-Pad2)*%
X292902500Y-181120000D03*
%TO.P,MX69,1*%
%TO.N,COL11*%
X286552500Y-183660000D03*
%TD*%
%TO.P,MX48,2*%
%TO.N,Net-(D44-Pad2)*%
X64302500Y-162070000D03*
%TO.P,MX48,1*%
%TO.N,COL0*%
X57952500Y-164610000D03*
%TD*%
%TO.P,MX17,2*%
%TO.N,Net-(D16-Pad2)*%
X57158750Y-123970000D03*
%TO.P,MX17,1*%
%TO.N,COL0*%
X50808750Y-126510000D03*
%TD*%
%TO.P,MX31,2*%
%TO.N,Net-(D30-Pad2)*%
X52396250Y-143020000D03*
%TO.P,MX31,1*%
%TO.N,COL0*%
X46046250Y-145560000D03*
%TD*%
%TO.P,MX45,2*%
%TO.N,Net-(D43-Pad2)*%
X307190000Y-143020000D03*
%TO.P,MX45,1*%
%TO.N,COL13*%
X300840000Y-145560000D03*
%TD*%
%TO.P,MX44,2*%
%TO.N,Net-(D42-Pad2)*%
X295283750Y-143020000D03*
%TO.P,MX44,1*%
%TO.N,COL12*%
X288933750Y-145560000D03*
%TD*%
%TO.P,MX70,2*%
%TO.N,Net-(D65-Pad2)*%
X316715000Y-181120000D03*
%TO.P,MX70,1*%
%TO.N,COL12*%
X310365000Y-183660000D03*
%TD*%
%TO.P,MX68,2*%
%TO.N,Net-(D63-Pad2)*%
X269090000Y-181120000D03*
%TO.P,MX68,1*%
%TO.N,COL10*%
X262740000Y-183660000D03*
%TD*%
%TO.P,MX67,2*%
%TO.N,Net-(D62-Pad2)*%
X245277500Y-181120000D03*
%TO.P,MX67,1*%
%TO.N,COL9*%
X238927500Y-183660000D03*
%TD*%
%TO.P,MX65,2*%
%TO.N,Net-(D60-Pad2)*%
X102402500Y-181120000D03*
%TO.P,MX65,1*%
%TO.N,COL2*%
X96052500Y-183660000D03*
%TD*%
%TO.P,MX64,2*%
%TO.N,Net-(D59-Pad2)*%
X78590000Y-181120000D03*
%TO.P,MX64,1*%
%TO.N,COL1*%
X72240000Y-183660000D03*
%TD*%
%TO.P,MX63,2*%
%TO.N,Net-(D58-Pad2)*%
X54777500Y-181120000D03*
%TO.P,MX63,1*%
%TO.N,COL0*%
X48427500Y-183660000D03*
%TD*%
%TO.P,MX62,2*%
%TO.N,Net-(D57-Pad2)*%
X319096250Y-162070000D03*
%TO.P,MX62,1*%
%TO.N,COL13*%
X312746250Y-164610000D03*
%TD*%
%TO.P,MX61,2*%
%TO.N,Net-(D56-Pad2)*%
X292902500Y-162070000D03*
%TO.P,MX61,1*%
%TO.N,COL12*%
X286552500Y-164610000D03*
%TD*%
%TO.P,MX60,2*%
%TO.N,Net-(D56-Pad2)*%
X302427500Y-162070000D03*
%TO.P,MX60,1*%
%TO.N,COL12*%
X296077500Y-164610000D03*
%TD*%
%TO.P,MX59,2*%
%TO.N,Net-(D55-Pad2)*%
X266708750Y-162070000D03*
%TO.P,MX59,1*%
%TO.N,COL11*%
X260358750Y-164610000D03*
%TD*%
%TO.P,MX58,2*%
%TO.N,Net-(D54-Pad2)*%
X247658750Y-162070000D03*
%TO.P,MX58,1*%
%TO.N,COL10*%
X241308750Y-164610000D03*
%TD*%
%TO.P,MX57,2*%
%TO.N,Net-(D53-Pad2)*%
X228608750Y-162070000D03*
%TO.P,MX57,1*%
%TO.N,COL9*%
X222258750Y-164610000D03*
%TD*%
%TO.P,MX56,2*%
%TO.N,Net-(D52-Pad2)*%
X209558750Y-162070000D03*
%TO.P,MX56,1*%
%TO.N,COL8*%
X203208750Y-164610000D03*
%TD*%
%TO.P,MX55,2*%
%TO.N,Net-(D51-Pad2)*%
X190508750Y-162070000D03*
%TO.P,MX55,1*%
%TO.N,COL7*%
X184158750Y-164610000D03*
%TD*%
%TO.P,MX54,2*%
%TO.N,Net-(D50-Pad2)*%
X171458750Y-162070000D03*
%TO.P,MX54,1*%
%TO.N,COL6*%
X165108750Y-164610000D03*
%TD*%
%TO.P,MX53,2*%
%TO.N,Net-(D49-Pad2)*%
X152408750Y-162070000D03*
%TO.P,MX53,1*%
%TO.N,COL5*%
X146058750Y-164610000D03*
%TD*%
%TO.P,MX52,2*%
%TO.N,Net-(D48-Pad2)*%
X133358750Y-162070000D03*
%TO.P,MX52,1*%
%TO.N,COL4*%
X127008750Y-164610000D03*
%TD*%
%TO.P,MX51,2*%
%TO.N,Net-(D47-Pad2)*%
X114308750Y-162070000D03*
%TO.P,MX51,1*%
%TO.N,COL3*%
X107958750Y-164610000D03*
%TD*%
%TO.P,MX50,2*%
%TO.N,Net-(D46-Pad2)*%
X95258750Y-162070000D03*
%TO.P,MX50,1*%
%TO.N,COL2*%
X88908750Y-164610000D03*
%TD*%
%TO.P,MX49,2*%
%TO.N,Net-(D45-Pad2)*%
X76208750Y-162070000D03*
%TO.P,MX49,1*%
%TO.N,COL1*%
X69858750Y-164610000D03*
%TD*%
%TO.P,MX47,2*%
%TO.N,Net-(D44-Pad2)*%
X54777500Y-162070000D03*
%TO.P,MX47,1*%
%TO.N,COL0*%
X48427500Y-164610000D03*
%TD*%
%TO.P,MX46,1*%
%TO.N,COL13*%
X316715000Y-134765000D03*
%TO.P,MX46,2*%
%TO.N,Net-(D43-Pad2)*%
X319255000Y-141115000D03*
%TD*%
%TO.P,MX43,2*%
%TO.N,Net-(D41-Pad2)*%
X276233750Y-143020000D03*
%TO.P,MX43,1*%
%TO.N,COL11*%
X269883750Y-145560000D03*
%TD*%
%TO.P,MX42,2*%
%TO.N,Net-(D40-Pad2)*%
X257183750Y-143020000D03*
%TO.P,MX42,1*%
%TO.N,COL10*%
X250833750Y-145560000D03*
%TD*%
%TO.P,MX41,2*%
%TO.N,Net-(D39-Pad2)*%
X238133750Y-143020000D03*
%TO.P,MX41,1*%
%TO.N,COL9*%
X231783750Y-145560000D03*
%TD*%
%TO.P,MX40,2*%
%TO.N,Net-(D38-Pad2)*%
X219083750Y-143020000D03*
%TO.P,MX40,1*%
%TO.N,COL8*%
X212733750Y-145560000D03*
%TD*%
%TO.P,MX39,2*%
%TO.N,Net-(D37-Pad2)*%
X200033750Y-143020000D03*
%TO.P,MX39,1*%
%TO.N,COL7*%
X193683750Y-145560000D03*
%TD*%
%TO.P,MX38,2*%
%TO.N,Net-(D36-Pad2)*%
X180983750Y-143020000D03*
%TO.P,MX38,1*%
%TO.N,COL6*%
X174633750Y-145560000D03*
%TD*%
%TO.P,MX37,2*%
%TO.N,Net-(D35-Pad2)*%
X161933750Y-143020000D03*
%TO.P,MX37,1*%
%TO.N,COL5*%
X155583750Y-145560000D03*
%TD*%
%TO.P,MX36,2*%
%TO.N,Net-(D34-Pad2)*%
X142883750Y-143020000D03*
%TO.P,MX36,1*%
%TO.N,COL4*%
X136533750Y-145560000D03*
%TD*%
%TO.P,MX35,2*%
%TO.N,Net-(D33-Pad2)*%
X123833750Y-143020000D03*
%TO.P,MX35,1*%
%TO.N,COL3*%
X117483750Y-145560000D03*
%TD*%
%TO.P,MX34,2*%
%TO.N,Net-(D32-Pad2)*%
X104783750Y-143020000D03*
%TO.P,MX34,1*%
%TO.N,COL2*%
X98433750Y-145560000D03*
%TD*%
%TO.P,MX33,2*%
%TO.N,Net-(D31-Pad2)*%
X85733750Y-143020000D03*
%TO.P,MX33,1*%
%TO.N,COL1*%
X79383750Y-145560000D03*
%TD*%
%TO.P,MX32,2*%
%TO.N,Net-(D30-Pad2)*%
X59540000Y-143020000D03*
%TO.P,MX32,1*%
%TO.N,COL0*%
X53190000Y-145560000D03*
%TD*%
%TO.P,MX30,2*%
%TO.N,Net-(D29-Pad2)*%
X314333750Y-123970000D03*
%TO.P,MX30,1*%
%TO.N,COL13*%
X307983750Y-126510000D03*
%TD*%
%TO.P,MX29,2*%
%TO.N,Net-(D28-Pad2)*%
X290521250Y-123970000D03*
%TO.P,MX29,1*%
%TO.N,COL12*%
X284171250Y-126510000D03*
%TD*%
%TO.P,MX28,2*%
%TO.N,Net-(D27-Pad2)*%
X271471250Y-123970000D03*
%TO.P,MX28,1*%
%TO.N,COL11*%
X265121250Y-126510000D03*
%TD*%
%TO.P,MX27,2*%
%TO.N,Net-(D26-Pad2)*%
X252421250Y-123970000D03*
%TO.P,MX27,1*%
%TO.N,COL10*%
X246071250Y-126510000D03*
%TD*%
%TO.P,MX26,2*%
%TO.N,Net-(D25-Pad2)*%
X233371250Y-123970000D03*
%TO.P,MX26,1*%
%TO.N,COL9*%
X227021250Y-126510000D03*
%TD*%
%TO.P,MX25,2*%
%TO.N,Net-(D24-Pad2)*%
X214321250Y-123970000D03*
%TO.P,MX25,1*%
%TO.N,COL8*%
X207971250Y-126510000D03*
%TD*%
%TO.P,MX24,2*%
%TO.N,Net-(D23-Pad2)*%
X195271250Y-123970000D03*
%TO.P,MX24,1*%
%TO.N,COL7*%
X188921250Y-126510000D03*
%TD*%
%TO.P,MX23,2*%
%TO.N,Net-(D22-Pad2)*%
X176221250Y-123970000D03*
%TO.P,MX23,1*%
%TO.N,COL6*%
X169871250Y-126510000D03*
%TD*%
%TO.P,MX22,2*%
%TO.N,Net-(D21-Pad2)*%
X157171250Y-123970000D03*
%TO.P,MX22,1*%
%TO.N,COL5*%
X150821250Y-126510000D03*
%TD*%
%TO.P,MX21,2*%
%TO.N,Net-(D20-Pad2)*%
X138121250Y-123970000D03*
%TO.P,MX21,1*%
%TO.N,COL4*%
X131771250Y-126510000D03*
%TD*%
%TO.P,MX20,2*%
%TO.N,Net-(D19-Pad2)*%
X119071250Y-123970000D03*
%TO.P,MX20,1*%
%TO.N,COL3*%
X112721250Y-126510000D03*
%TD*%
%TO.P,MX19,2*%
%TO.N,Net-(D18-Pad2)*%
X100021250Y-123970000D03*
%TO.P,MX19,1*%
%TO.N,COL2*%
X93671250Y-126510000D03*
%TD*%
%TO.P,MX18,2*%
%TO.N,Net-(D17-Pad2)*%
X80971250Y-123970000D03*
%TO.P,MX18,1*%
%TO.N,COL1*%
X74621250Y-126510000D03*
%TD*%
%TO.P,MX16,2*%
%TO.N,Net-(D15-Pad2)*%
X319096250Y-104920000D03*
%TO.P,MX16,1*%
%TO.N,COL14*%
X312746250Y-107460000D03*
%TD*%
%TO.P,MX15,2*%
%TO.N,Net-(D14-Pad2)*%
X300046250Y-104920000D03*
%TO.P,MX15,1*%
%TO.N,COL13*%
X293696250Y-107460000D03*
%TD*%
%TO.P,MX14,2*%
%TO.N,Net-(D14-Pad2)*%
X309571250Y-104920000D03*
%TO.P,MX14,1*%
%TO.N,COL13*%
X303221250Y-107460000D03*
%TD*%
%TO.P,MX13,2*%
%TO.N,Net-(D13-Pad2)*%
X280996250Y-104920000D03*
%TO.P,MX13,1*%
%TO.N,COL12*%
X274646250Y-107460000D03*
%TD*%
%TO.P,MX12,2*%
%TO.N,Net-(D12-Pad2)*%
X261946250Y-104920000D03*
%TO.P,MX12,1*%
%TO.N,COL11*%
X255596250Y-107460000D03*
%TD*%
%TO.P,MX11,2*%
%TO.N,Net-(D11-Pad2)*%
X242896250Y-104920000D03*
%TO.P,MX11,1*%
%TO.N,COL10*%
X236546250Y-107460000D03*
%TD*%
%TO.P,MX10,2*%
%TO.N,Net-(D10-Pad2)*%
X223846250Y-104920000D03*
%TO.P,MX10,1*%
%TO.N,COL9*%
X217496250Y-107460000D03*
%TD*%
%TO.P,MX9,2*%
%TO.N,Net-(D9-Pad2)*%
X204796250Y-104920000D03*
%TO.P,MX9,1*%
%TO.N,COL8*%
X198446250Y-107460000D03*
%TD*%
%TO.P,MX8,2*%
%TO.N,Net-(D8-Pad2)*%
X185746250Y-104920000D03*
%TO.P,MX8,1*%
%TO.N,COL7*%
X179396250Y-107460000D03*
%TD*%
%TO.P,MX7,2*%
%TO.N,Net-(D7-Pad2)*%
X166696250Y-104920000D03*
%TO.P,MX7,1*%
%TO.N,COL6*%
X160346250Y-107460000D03*
%TD*%
%TO.P,MX6,2*%
%TO.N,Net-(D6-Pad2)*%
X147646250Y-104920000D03*
%TO.P,MX6,1*%
%TO.N,COL5*%
X141296250Y-107460000D03*
%TD*%
%TO.P,MX5,2*%
%TO.N,Net-(D5-Pad2)*%
X128596250Y-104920000D03*
%TO.P,MX5,1*%
%TO.N,COL4*%
X122246250Y-107460000D03*
%TD*%
%TO.P,MX4,2*%
%TO.N,Net-(D4-Pad2)*%
X109546250Y-104920000D03*
%TO.P,MX4,1*%
%TO.N,COL3*%
X103196250Y-107460000D03*
%TD*%
%TO.P,MX3,2*%
%TO.N,Net-(D3-Pad2)*%
X90496250Y-104920000D03*
%TO.P,MX3,1*%
%TO.N,COL2*%
X84146250Y-107460000D03*
%TD*%
%TO.P,MX2,2*%
%TO.N,Net-(D2-Pad2)*%
X71446250Y-104920000D03*
%TO.P,MX2,1*%
%TO.N,COL1*%
X65096250Y-107460000D03*
%TD*%
%TO.P,MX1,2*%
%TO.N,Net-(D1-Pad2)*%
X52396250Y-104920000D03*
%TO.P,MX1,1*%
%TO.N,COL0*%
X46046250Y-107460000D03*
%TD*%
D14*
%TO.P,D65,2*%
%TO.N,Net-(D65-Pad2)*%
X318000000Y-192350000D03*
%TO.P,D65,1*%
%TO.N,ROW4*%
X318000000Y-195650000D03*
%TD*%
%TO.P,D64,2*%
%TO.N,Net-(D64-Pad2)*%
X295000000Y-192350000D03*
%TO.P,D64,1*%
%TO.N,ROW4*%
X295000000Y-195650000D03*
%TD*%
%TO.P,D63,2*%
%TO.N,Net-(D63-Pad2)*%
X271000000Y-192350000D03*
%TO.P,D63,1*%
%TO.N,ROW4*%
X271000000Y-195650000D03*
%TD*%
%TO.P,D62,2*%
%TO.N,Net-(D62-Pad2)*%
X247000000Y-192350000D03*
%TO.P,D62,1*%
%TO.N,ROW4*%
X247000000Y-195650000D03*
%TD*%
%TO.P,D61,2*%
%TO.N,Net-(D61-Pad2)*%
X175062500Y-192350000D03*
%TO.P,D61,1*%
%TO.N,ROW4*%
X175062500Y-195650000D03*
%TD*%
%TO.P,D60,2*%
%TO.N,Net-(D60-Pad2)*%
X103625000Y-192350000D03*
%TO.P,D60,1*%
%TO.N,ROW4*%
X103625000Y-195650000D03*
%TD*%
%TO.P,D59,2*%
%TO.N,Net-(D59-Pad2)*%
X79812500Y-192350000D03*
%TO.P,D59,1*%
%TO.N,ROW4*%
X79812500Y-195650000D03*
%TD*%
%TO.P,D58,2*%
%TO.N,Net-(D58-Pad2)*%
X56000000Y-192350000D03*
%TO.P,D58,1*%
%TO.N,ROW4*%
X56000000Y-195650000D03*
%TD*%
%TO.P,D57,2*%
%TO.N,Net-(D57-Pad2)*%
X307000000Y-172350000D03*
%TO.P,D57,1*%
%TO.N,ROW3*%
X307000000Y-175650000D03*
%TD*%
%TO.P,D56,2*%
%TO.N,Net-(D56-Pad2)*%
X303000000Y-172350000D03*
%TO.P,D56,1*%
%TO.N,ROW3*%
X303000000Y-175650000D03*
%TD*%
%TO.P,D55,2*%
%TO.N,Net-(D55-Pad2)*%
X267500000Y-172350000D03*
%TO.P,D55,1*%
%TO.N,ROW3*%
X267500000Y-175650000D03*
%TD*%
%TO.P,D54,2*%
%TO.N,Net-(D54-Pad2)*%
X248450000Y-172350000D03*
%TO.P,D54,1*%
%TO.N,ROW3*%
X248450000Y-175650000D03*
%TD*%
%TO.P,D53,2*%
%TO.N,Net-(D53-Pad2)*%
X229400000Y-172350000D03*
%TO.P,D53,1*%
%TO.N,ROW3*%
X229400000Y-175650000D03*
%TD*%
%TO.P,D52,2*%
%TO.N,Net-(D52-Pad2)*%
X210350000Y-172350000D03*
%TO.P,D52,1*%
%TO.N,ROW3*%
X210350000Y-175650000D03*
%TD*%
%TO.P,D51,2*%
%TO.N,Net-(D51-Pad2)*%
X191300000Y-172350000D03*
%TO.P,D51,1*%
%TO.N,ROW3*%
X191300000Y-175650000D03*
%TD*%
%TO.P,D50,2*%
%TO.N,Net-(D50-Pad2)*%
X172250000Y-172350000D03*
%TO.P,D50,1*%
%TO.N,ROW3*%
X172250000Y-175650000D03*
%TD*%
%TO.P,D49,2*%
%TO.N,Net-(D49-Pad2)*%
X153200000Y-172350000D03*
%TO.P,D49,1*%
%TO.N,ROW3*%
X153200000Y-175650000D03*
%TD*%
%TO.P,D48,2*%
%TO.N,Net-(D48-Pad2)*%
X134150000Y-172350000D03*
%TO.P,D48,1*%
%TO.N,ROW3*%
X134150000Y-175650000D03*
%TD*%
%TO.P,D47,2*%
%TO.N,Net-(D47-Pad2)*%
X115100000Y-172350000D03*
%TO.P,D47,1*%
%TO.N,ROW3*%
X115100000Y-175650000D03*
%TD*%
%TO.P,D46,2*%
%TO.N,Net-(D46-Pad2)*%
X96050000Y-172350000D03*
%TO.P,D46,1*%
%TO.N,ROW3*%
X96050000Y-175650000D03*
%TD*%
%TO.P,D45,2*%
%TO.N,Net-(D45-Pad2)*%
X77000000Y-172350000D03*
%TO.P,D45,1*%
%TO.N,ROW3*%
X77000000Y-175650000D03*
%TD*%
%TO.P,D44,2*%
%TO.N,Net-(D44-Pad2)*%
X65000000Y-172350000D03*
%TO.P,D44,1*%
%TO.N,ROW3*%
X65000000Y-175650000D03*
%TD*%
%TO.P,D43,2*%
%TO.N,Net-(D43-Pad2)*%
X302000000Y-152350000D03*
%TO.P,D43,1*%
%TO.N,ROW2*%
X302000000Y-155650000D03*
%TD*%
%TO.P,D42,2*%
%TO.N,Net-(D42-Pad2)*%
X298000000Y-152350000D03*
%TO.P,D42,1*%
%TO.N,ROW2*%
X298000000Y-155650000D03*
%TD*%
%TO.P,D41,2*%
%TO.N,Net-(D41-Pad2)*%
X276500000Y-152350000D03*
%TO.P,D41,1*%
%TO.N,ROW2*%
X276500000Y-155650000D03*
%TD*%
%TO.P,D40,2*%
%TO.N,Net-(D40-Pad2)*%
X257450000Y-152350000D03*
%TO.P,D40,1*%
%TO.N,ROW2*%
X257450000Y-155650000D03*
%TD*%
%TO.P,D39,2*%
%TO.N,Net-(D39-Pad2)*%
X238400000Y-152350000D03*
%TO.P,D39,1*%
%TO.N,ROW2*%
X238400000Y-155650000D03*
%TD*%
%TO.P,D38,2*%
%TO.N,Net-(D38-Pad2)*%
X219350000Y-152350000D03*
%TO.P,D38,1*%
%TO.N,ROW2*%
X219350000Y-155650000D03*
%TD*%
%TO.P,D37,2*%
%TO.N,Net-(D37-Pad2)*%
X200300000Y-152350000D03*
%TO.P,D37,1*%
%TO.N,ROW2*%
X200300000Y-155650000D03*
%TD*%
%TO.P,D36,2*%
%TO.N,Net-(D36-Pad2)*%
X181250000Y-152350000D03*
%TO.P,D36,1*%
%TO.N,ROW2*%
X181250000Y-155650000D03*
%TD*%
%TO.P,D35,2*%
%TO.N,Net-(D35-Pad2)*%
X162200000Y-152350000D03*
%TO.P,D35,1*%
%TO.N,ROW2*%
X162200000Y-155650000D03*
%TD*%
%TO.P,D34,2*%
%TO.N,Net-(D34-Pad2)*%
X143150000Y-152350000D03*
%TO.P,D34,1*%
%TO.N,ROW2*%
X143150000Y-155650000D03*
%TD*%
%TO.P,D33,2*%
%TO.N,Net-(D33-Pad2)*%
X124100000Y-152350000D03*
%TO.P,D33,1*%
%TO.N,ROW2*%
X124100000Y-155650000D03*
%TD*%
%TO.P,D32,2*%
%TO.N,Net-(D32-Pad2)*%
X105050000Y-152350000D03*
%TO.P,D32,1*%
%TO.N,ROW2*%
X105050000Y-155650000D03*
%TD*%
%TO.P,D31,2*%
%TO.N,Net-(D31-Pad2)*%
X86000000Y-152350000D03*
%TO.P,D31,1*%
%TO.N,ROW2*%
X86000000Y-155650000D03*
%TD*%
%TO.P,D30,2*%
%TO.N,Net-(D30-Pad2)*%
X60000000Y-152350000D03*
%TO.P,D30,1*%
%TO.N,ROW2*%
X60000000Y-155650000D03*
%TD*%
%TO.P,D29,2*%
%TO.N,Net-(D29-Pad2)*%
X301000000Y-133400000D03*
%TO.P,D29,1*%
%TO.N,ROW1*%
X301000000Y-136700000D03*
%TD*%
%TO.P,D28,2*%
%TO.N,Net-(D28-Pad2)*%
X291550000Y-133400000D03*
%TO.P,D28,1*%
%TO.N,ROW1*%
X291550000Y-136700000D03*
%TD*%
%TO.P,D27,2*%
%TO.N,Net-(D27-Pad2)*%
X272500000Y-133400000D03*
%TO.P,D27,1*%
%TO.N,ROW1*%
X272500000Y-136700000D03*
%TD*%
%TO.P,D26,2*%
%TO.N,Net-(D26-Pad2)*%
X253450000Y-133400000D03*
%TO.P,D26,1*%
%TO.N,ROW1*%
X253450000Y-136700000D03*
%TD*%
%TO.P,D25,2*%
%TO.N,Net-(D25-Pad2)*%
X234400000Y-133400000D03*
%TO.P,D25,1*%
%TO.N,ROW1*%
X234400000Y-136700000D03*
%TD*%
%TO.P,D24,2*%
%TO.N,Net-(D24-Pad2)*%
X215350000Y-133400000D03*
%TO.P,D24,1*%
%TO.N,ROW1*%
X215350000Y-136700000D03*
%TD*%
%TO.P,D23,2*%
%TO.N,Net-(D23-Pad2)*%
X196300000Y-133400000D03*
%TO.P,D23,1*%
%TO.N,ROW1*%
X196300000Y-136700000D03*
%TD*%
%TO.P,D22,2*%
%TO.N,Net-(D22-Pad2)*%
X177250000Y-133400000D03*
%TO.P,D22,1*%
%TO.N,ROW1*%
X177250000Y-136700000D03*
%TD*%
%TO.P,D21,2*%
%TO.N,Net-(D21-Pad2)*%
X158200000Y-133400000D03*
%TO.P,D21,1*%
%TO.N,ROW1*%
X158200000Y-136700000D03*
%TD*%
%TO.P,D20,2*%
%TO.N,Net-(D20-Pad2)*%
X139150000Y-133400000D03*
%TO.P,D20,1*%
%TO.N,ROW1*%
X139150000Y-136700000D03*
%TD*%
%TO.P,D19,2*%
%TO.N,Net-(D19-Pad2)*%
X120100000Y-133400000D03*
%TO.P,D19,1*%
%TO.N,ROW1*%
X120100000Y-136700000D03*
%TD*%
%TO.P,D18,2*%
%TO.N,Net-(D18-Pad2)*%
X101050000Y-133400000D03*
%TO.P,D18,1*%
%TO.N,ROW1*%
X101050000Y-136700000D03*
%TD*%
%TO.P,D17,2*%
%TO.N,Net-(D17-Pad2)*%
X82000000Y-133400000D03*
%TO.P,D17,1*%
%TO.N,ROW1*%
X82000000Y-136700000D03*
%TD*%
%TO.P,D16,2*%
%TO.N,Net-(D16-Pad2)*%
X58000000Y-133400000D03*
%TO.P,D16,1*%
%TO.N,ROW1*%
X58000000Y-136700000D03*
%TD*%
%TO.P,D15,2*%
%TO.N,Net-(D15-Pad2)*%
X313000000Y-114350000D03*
%TO.P,D15,1*%
%TO.N,ROW0*%
X313000000Y-117650000D03*
%TD*%
%TO.P,D14,2*%
%TO.N,Net-(D14-Pad2)*%
X300650000Y-114350000D03*
%TO.P,D14,1*%
%TO.N,ROW0*%
X300650000Y-117650000D03*
%TD*%
%TO.P,D13,2*%
%TO.N,Net-(D13-Pad2)*%
X281600000Y-114350000D03*
%TO.P,D13,1*%
%TO.N,ROW0*%
X281600000Y-117650000D03*
%TD*%
%TO.P,D12,2*%
%TO.N,Net-(D12-Pad2)*%
X262550000Y-114350000D03*
%TO.P,D12,1*%
%TO.N,ROW0*%
X262550000Y-117650000D03*
%TD*%
%TO.P,D11,2*%
%TO.N,Net-(D11-Pad2)*%
X243500000Y-114350000D03*
%TO.P,D11,1*%
%TO.N,ROW0*%
X243500000Y-117650000D03*
%TD*%
%TO.P,D10,2*%
%TO.N,Net-(D10-Pad2)*%
X224450000Y-114350000D03*
%TO.P,D10,1*%
%TO.N,ROW0*%
X224450000Y-117650000D03*
%TD*%
%TO.P,D9,2*%
%TO.N,Net-(D9-Pad2)*%
X205400000Y-114350000D03*
%TO.P,D9,1*%
%TO.N,ROW0*%
X205400000Y-117650000D03*
%TD*%
%TO.P,D8,2*%
%TO.N,Net-(D8-Pad2)*%
X186350000Y-114350000D03*
%TO.P,D8,1*%
%TO.N,ROW0*%
X186350000Y-117650000D03*
%TD*%
%TO.P,D7,2*%
%TO.N,Net-(D7-Pad2)*%
X167300000Y-114350000D03*
%TO.P,D7,1*%
%TO.N,ROW0*%
X167300000Y-117650000D03*
%TD*%
%TO.P,D6,2*%
%TO.N,Net-(D6-Pad2)*%
X148250000Y-114350000D03*
%TO.P,D6,1*%
%TO.N,ROW0*%
X148250000Y-117650000D03*
%TD*%
%TO.P,D5,2*%
%TO.N,Net-(D5-Pad2)*%
X129200000Y-114350000D03*
%TO.P,D5,1*%
%TO.N,ROW0*%
X129200000Y-117650000D03*
%TD*%
%TO.P,D4,2*%
%TO.N,Net-(D4-Pad2)*%
X110150000Y-114350000D03*
%TO.P,D4,1*%
%TO.N,ROW0*%
X110150000Y-117650000D03*
%TD*%
%TO.P,D3,2*%
%TO.N,Net-(D3-Pad2)*%
X91100000Y-114350000D03*
%TO.P,D3,1*%
%TO.N,ROW0*%
X91100000Y-117650000D03*
%TD*%
%TO.P,D2,2*%
%TO.N,Net-(D2-Pad2)*%
X72050000Y-114350000D03*
%TO.P,D2,1*%
%TO.N,ROW0*%
X72050000Y-117650000D03*
%TD*%
%TO.P,D1,2*%
%TO.N,Net-(D1-Pad2)*%
X53000000Y-114350000D03*
%TO.P,D1,1*%
%TO.N,ROW0*%
X53000000Y-117650000D03*
%TD*%
D15*
%TO.N,COL14*%
X313000000Y-120000000D03*
%TD*%
D16*
%TO.N,Net-(D1-Pad2)*%
X52396250Y-113746250D02*
X53000000Y-114350000D01*
X52396250Y-104920000D02*
X52396250Y-113746250D01*
%TO.N,ROW0*%
X300650000Y-117650000D02*
X313000000Y-117650000D01*
X71350000Y-117650000D02*
X290350000Y-117650000D01*
X53000000Y-117650000D02*
X54350000Y-117650000D01*
X298000000Y-115000000D02*
X300650000Y-117650000D01*
X293000000Y-115000000D02*
X298000000Y-115000000D01*
X290350000Y-117650000D02*
X293000000Y-115000000D01*
X54350000Y-117650000D02*
X58000000Y-114000000D01*
X67700000Y-114000000D02*
X71350000Y-117650000D01*
X58000000Y-114000000D02*
X67700000Y-114000000D01*
X53000000Y-117650000D02*
X42670000Y-117650000D01*
X42670000Y-117650000D02*
X42270000Y-118050000D01*
%TO.N,Net-(D2-Pad2)*%
X71446250Y-113746250D02*
X72050000Y-114350000D01*
X71446250Y-104920000D02*
X71446250Y-113746250D01*
%TO.N,Net-(D3-Pad2)*%
X90496250Y-113746250D02*
X91100000Y-114350000D01*
X90496250Y-104920000D02*
X90496250Y-113746250D01*
%TO.N,Net-(D4-Pad2)*%
X109546250Y-113746250D02*
X110150000Y-114350000D01*
X109546250Y-104920000D02*
X109546250Y-113746250D01*
%TO.N,Net-(D5-Pad2)*%
X128596250Y-113746250D02*
X129200000Y-114350000D01*
X128596250Y-104920000D02*
X128596250Y-113746250D01*
%TO.N,Net-(D6-Pad2)*%
X147646250Y-113746250D02*
X148250000Y-114350000D01*
X147646250Y-104920000D02*
X147646250Y-113746250D01*
%TO.N,Net-(D7-Pad2)*%
X166696250Y-113746250D02*
X167300000Y-114350000D01*
X166696250Y-104920000D02*
X166696250Y-113746250D01*
%TO.N,Net-(D8-Pad2)*%
X185746250Y-113746250D02*
X186350000Y-114350000D01*
X185746250Y-104920000D02*
X185746250Y-113746250D01*
%TO.N,Net-(D9-Pad2)*%
X204796250Y-113746250D02*
X205400000Y-114350000D01*
X204796250Y-104920000D02*
X204796250Y-113746250D01*
%TO.N,Net-(D10-Pad2)*%
X223846250Y-113746250D02*
X224450000Y-114350000D01*
X223846250Y-104920000D02*
X223846250Y-113746250D01*
%TO.N,Net-(D11-Pad2)*%
X242896250Y-113746250D02*
X243500000Y-114350000D01*
X242896250Y-104920000D02*
X242896250Y-113746250D01*
%TO.N,Net-(D12-Pad2)*%
X261946250Y-113746250D02*
X262550000Y-114350000D01*
X261946250Y-104920000D02*
X261946250Y-113746250D01*
%TO.N,Net-(D13-Pad2)*%
X280996250Y-113746250D02*
X281600000Y-114350000D01*
X280996250Y-104920000D02*
X280996250Y-113746250D01*
%TO.N,Net-(D14-Pad2)*%
X300046250Y-113746250D02*
X300650000Y-114350000D01*
X300046250Y-104920000D02*
X300046250Y-113746250D01*
X309571250Y-104920000D02*
X300046250Y-104920000D01*
%TO.N,Net-(D15-Pad2)*%
X319096250Y-104920000D02*
X319096250Y-112903750D01*
X317650000Y-114350000D02*
X313000000Y-114350000D01*
X319096250Y-112903750D02*
X317650000Y-114350000D01*
%TO.N,Net-(D16-Pad2)*%
X57158750Y-132558750D02*
X58000000Y-133400000D01*
X57158750Y-123970000D02*
X57158750Y-132558750D01*
%TO.N,ROW1*%
X80980999Y-137019001D02*
X81300000Y-136700000D01*
X62019279Y-137019001D02*
X80980999Y-137019001D01*
X61700278Y-136700000D02*
X62019279Y-137019001D01*
X58000000Y-136700000D02*
X61700278Y-136700000D01*
X301000000Y-136700000D02*
X81300000Y-136700000D01*
X48000000Y-129250252D02*
X48000000Y-124000000D01*
X58000000Y-136700000D02*
X55449748Y-136700000D01*
X44590000Y-120590000D02*
X42270000Y-120590000D01*
X48000000Y-124000000D02*
X44590000Y-120590000D01*
X55449748Y-136700000D02*
X48000000Y-129250252D01*
%TO.N,Net-(D17-Pad2)*%
X80971250Y-132371250D02*
X82000000Y-133400000D01*
X80971250Y-123970000D02*
X80971250Y-132371250D01*
%TO.N,Net-(D18-Pad2)*%
X100021250Y-132371250D02*
X101050000Y-133400000D01*
X100021250Y-123970000D02*
X100021250Y-132371250D01*
%TO.N,Net-(D19-Pad2)*%
X119071250Y-132371250D02*
X120100000Y-133400000D01*
X119071250Y-123970000D02*
X119071250Y-132371250D01*
%TO.N,Net-(D20-Pad2)*%
X138121250Y-132371250D02*
X139150000Y-133400000D01*
X138121250Y-123970000D02*
X138121250Y-132371250D01*
%TO.N,Net-(D21-Pad2)*%
X157171250Y-132371250D02*
X158200000Y-133400000D01*
X157171250Y-123970000D02*
X157171250Y-132371250D01*
%TO.N,Net-(D22-Pad2)*%
X176221250Y-132371250D02*
X177250000Y-133400000D01*
X176221250Y-123970000D02*
X176221250Y-132371250D01*
%TO.N,Net-(D23-Pad2)*%
X195271250Y-132371250D02*
X196300000Y-133400000D01*
X195271250Y-123970000D02*
X195271250Y-132371250D01*
%TO.N,Net-(D24-Pad2)*%
X214321250Y-132371250D02*
X215350000Y-133400000D01*
X214321250Y-123970000D02*
X214321250Y-132371250D01*
%TO.N,Net-(D25-Pad2)*%
X233371250Y-132371250D02*
X234400000Y-133400000D01*
X233371250Y-123970000D02*
X233371250Y-132371250D01*
%TO.N,Net-(D26-Pad2)*%
X252421250Y-132371250D02*
X253450000Y-133400000D01*
X252421250Y-123970000D02*
X252421250Y-132371250D01*
%TO.N,Net-(D27-Pad2)*%
X271471250Y-132371250D02*
X272500000Y-133400000D01*
X271471250Y-123970000D02*
X271471250Y-132371250D01*
%TO.N,Net-(D28-Pad2)*%
X290521250Y-132371250D02*
X291550000Y-133400000D01*
X290521250Y-123970000D02*
X290521250Y-132371250D01*
%TO.N,Net-(D29-Pad2)*%
X314333750Y-129904974D02*
X310838724Y-133400000D01*
X310838724Y-133400000D02*
X301000000Y-133400000D01*
X314333750Y-123970000D02*
X314333750Y-129904974D01*
%TO.N,Net-(D30-Pad2)*%
X59540000Y-151890000D02*
X60000000Y-152350000D01*
X59540000Y-143020000D02*
X59540000Y-151890000D01*
X52396250Y-143020000D02*
X59540000Y-143020000D01*
%TO.N,ROW2*%
X60000000Y-155650000D02*
X285350000Y-155650000D01*
X285350000Y-155650000D02*
X287000000Y-154000000D01*
X296350000Y-154000000D02*
X298000000Y-155650000D01*
X287000000Y-154000000D02*
X296350000Y-154000000D01*
X302000000Y-155650000D02*
X298000000Y-155650000D01*
X47599990Y-124599990D02*
X46000000Y-123000000D01*
X47599990Y-142078992D02*
X47599990Y-124599990D01*
X53761249Y-148240251D02*
X47599990Y-142078992D01*
X53761249Y-149411249D02*
X53761249Y-148240251D01*
X60000000Y-155650000D02*
X53761249Y-149411249D01*
X46000000Y-123000000D02*
X42400000Y-123000000D01*
X42400000Y-123000000D02*
X42270000Y-123130000D01*
%TO.N,Net-(D31-Pad2)*%
X85733750Y-152083750D02*
X86000000Y-152350000D01*
X85733750Y-143020000D02*
X85733750Y-152083750D01*
%TO.N,Net-(D32-Pad2)*%
X104783750Y-152083750D02*
X105050000Y-152350000D01*
X104783750Y-143020000D02*
X104783750Y-152083750D01*
%TO.N,Net-(D33-Pad2)*%
X123833750Y-152083750D02*
X124100000Y-152350000D01*
X123833750Y-143020000D02*
X123833750Y-152083750D01*
%TO.N,Net-(D34-Pad2)*%
X142883750Y-152083750D02*
X143150000Y-152350000D01*
X142883750Y-143020000D02*
X142883750Y-152083750D01*
%TO.N,Net-(D35-Pad2)*%
X161933750Y-152083750D02*
X162200000Y-152350000D01*
X161933750Y-143020000D02*
X161933750Y-152083750D01*
%TO.N,Net-(D36-Pad2)*%
X180983750Y-152083750D02*
X181250000Y-152350000D01*
X180983750Y-143020000D02*
X180983750Y-152083750D01*
%TO.N,Net-(D37-Pad2)*%
X200033750Y-152083750D02*
X200300000Y-152350000D01*
X200033750Y-143020000D02*
X200033750Y-152083750D01*
%TO.N,Net-(D38-Pad2)*%
X219083750Y-152083750D02*
X219350000Y-152350000D01*
X219083750Y-143020000D02*
X219083750Y-152083750D01*
%TO.N,Net-(D39-Pad2)*%
X238133750Y-152083750D02*
X238400000Y-152350000D01*
X238133750Y-143020000D02*
X238133750Y-152083750D01*
%TO.N,Net-(D40-Pad2)*%
X257183750Y-152083750D02*
X257450000Y-152350000D01*
X257183750Y-143020000D02*
X257183750Y-152083750D01*
%TO.N,Net-(D41-Pad2)*%
X276233750Y-152083750D02*
X276500000Y-152350000D01*
X276233750Y-143020000D02*
X276233750Y-152083750D01*
%TO.N,Net-(D42-Pad2)*%
X295283750Y-149633750D02*
X298000000Y-152350000D01*
X295283750Y-143020000D02*
X295283750Y-149633750D01*
%TO.N,Net-(D43-Pad2)*%
X307190000Y-143020000D02*
X310170000Y-146000000D01*
X314370000Y-146000000D02*
X319255000Y-141115000D01*
X310170000Y-146000000D02*
X314370000Y-146000000D01*
X302000000Y-146619010D02*
X302000000Y-152350000D01*
X305599010Y-143020000D02*
X302000000Y-146619010D01*
X307190000Y-143020000D02*
X305599010Y-143020000D01*
%TO.N,Net-(D44-Pad2)*%
X64302500Y-171652500D02*
X65000000Y-172350000D01*
X64302500Y-162070000D02*
X64302500Y-171652500D01*
X54777500Y-162070000D02*
X64302500Y-162070000D01*
%TO.N,Net-(D45-Pad2)*%
X76208750Y-171558750D02*
X77000000Y-172350000D01*
X76208750Y-162070000D02*
X76208750Y-171558750D01*
%TO.N,ROW3*%
X307000000Y-175650000D02*
X293650000Y-175650000D01*
X293650000Y-175650000D02*
X291000000Y-173000000D01*
X291000000Y-173000000D02*
X282000000Y-173000000D01*
X279350000Y-175650000D02*
X267500000Y-175650000D01*
X282000000Y-173000000D02*
X279350000Y-175650000D01*
X267500000Y-175650000D02*
X65000000Y-175650000D01*
X53918498Y-175650000D02*
X45982499Y-167714001D01*
X46000000Y-126000000D02*
X42600000Y-126000000D01*
X48000000Y-146561276D02*
X48000000Y-143044700D01*
X48000000Y-143044700D02*
X47000000Y-142044700D01*
X65000000Y-175650000D02*
X53918498Y-175650000D01*
X47000000Y-142044700D02*
X47000000Y-127000000D01*
X47000000Y-127000000D02*
X46000000Y-126000000D01*
X42600000Y-126000000D02*
X42270000Y-125670000D01*
X45982499Y-167714001D02*
X45982499Y-165017501D01*
X47280638Y-147280638D02*
X48000000Y-146561276D01*
X47280638Y-163719362D02*
X45982499Y-165017501D01*
X47280638Y-147280638D02*
X47280638Y-163719362D01*
%TO.N,Net-(D46-Pad2)*%
X95258750Y-171558750D02*
X96050000Y-172350000D01*
X95258750Y-162070000D02*
X95258750Y-171558750D01*
%TO.N,Net-(D47-Pad2)*%
X114308750Y-171558750D02*
X115100000Y-172350000D01*
X114308750Y-162070000D02*
X114308750Y-171558750D01*
%TO.N,Net-(D48-Pad2)*%
X133358750Y-171558750D02*
X134150000Y-172350000D01*
X133358750Y-162070000D02*
X133358750Y-171558750D01*
%TO.N,Net-(D49-Pad2)*%
X152408750Y-171558750D02*
X153200000Y-172350000D01*
X152408750Y-162070000D02*
X152408750Y-171558750D01*
%TO.N,Net-(D50-Pad2)*%
X171458750Y-171558750D02*
X172250000Y-172350000D01*
X171458750Y-162070000D02*
X171458750Y-171558750D01*
%TO.N,Net-(D51-Pad2)*%
X190508750Y-171558750D02*
X191300000Y-172350000D01*
X190508750Y-162070000D02*
X190508750Y-171558750D01*
%TO.N,Net-(D52-Pad2)*%
X209558750Y-171558750D02*
X210350000Y-172350000D01*
X209558750Y-162070000D02*
X209558750Y-171558750D01*
%TO.N,Net-(D53-Pad2)*%
X228608750Y-171558750D02*
X229400000Y-172350000D01*
X228608750Y-162070000D02*
X228608750Y-171558750D01*
%TO.N,Net-(D54-Pad2)*%
X247658750Y-171558750D02*
X248450000Y-172350000D01*
X247658750Y-162070000D02*
X247658750Y-171558750D01*
%TO.N,Net-(D55-Pad2)*%
X266708750Y-171558750D02*
X267500000Y-172350000D01*
X266708750Y-162070000D02*
X266708750Y-171558750D01*
%TO.N,Net-(D56-Pad2)*%
X302427500Y-171777500D02*
X303000000Y-172350000D01*
X302427500Y-162070000D02*
X302427500Y-171777500D01*
X292902500Y-162070000D02*
X302427500Y-162070000D01*
%TO.N,Net-(D57-Pad2)*%
X318241276Y-162070000D02*
X307961276Y-172350000D01*
X307961276Y-172350000D02*
X307000000Y-172350000D01*
X319096250Y-162070000D02*
X318241276Y-162070000D01*
%TO.N,Net-(D58-Pad2)*%
X54777500Y-191127500D02*
X56000000Y-192350000D01*
X54777500Y-181120000D02*
X54777500Y-191127500D01*
%TO.N,Net-(D59-Pad2)*%
X78590000Y-191127500D02*
X79812500Y-192350000D01*
X78590000Y-181120000D02*
X78590000Y-191127500D01*
%TO.N,Net-(D60-Pad2)*%
X102402500Y-191127500D02*
X103625000Y-192350000D01*
X102402500Y-181120000D02*
X102402500Y-191127500D01*
%TO.N,ROW4*%
X56000000Y-195650000D02*
X103625000Y-195650000D01*
X103625000Y-195650000D02*
X318000000Y-195650000D01*
X46599990Y-142210389D02*
X46599990Y-128599990D01*
X46000000Y-128000000D02*
X42480000Y-128000000D01*
X56000000Y-195650000D02*
X54868498Y-195650000D01*
X54868498Y-195650000D02*
X43601249Y-184382751D01*
X47599990Y-143210388D02*
X46599990Y-142210389D01*
X46880628Y-147114949D02*
X47599990Y-146395587D01*
X43601249Y-184382751D02*
X43601249Y-165398751D01*
X46880628Y-162119372D02*
X46880628Y-147114949D01*
X42480000Y-128000000D02*
X42270000Y-128210000D01*
X46599990Y-128599990D02*
X46000000Y-128000000D01*
X47599990Y-146395587D02*
X47599990Y-143210388D01*
X43601249Y-165398751D02*
X46880628Y-162119372D01*
%TO.N,Net-(D61-Pad2)*%
X173840000Y-191127500D02*
X175062500Y-192350000D01*
X173840000Y-181120000D02*
X173840000Y-191127500D01*
%TO.N,Net-(D62-Pad2)*%
X245277500Y-190627500D02*
X247000000Y-192350000D01*
X245277500Y-181120000D02*
X245277500Y-190627500D01*
%TO.N,Net-(D63-Pad2)*%
X269090000Y-190440000D02*
X271000000Y-192350000D01*
X269090000Y-181120000D02*
X269090000Y-190440000D01*
%TO.N,Net-(D64-Pad2)*%
X292902500Y-190252500D02*
X295000000Y-192350000D01*
X292902500Y-181120000D02*
X292902500Y-190252500D01*
%TO.N,Net-(D65-Pad2)*%
X316715000Y-191065000D02*
X318000000Y-192350000D01*
X316715000Y-181120000D02*
X316715000Y-191065000D01*
%TO.N,COL0*%
X48427500Y-164610000D02*
X57952500Y-164610000D01*
X42270000Y-115510000D02*
X46046250Y-111733750D01*
X46046250Y-111733750D02*
X46046250Y-107460000D01*
%TO.N,COL6*%
X169073750Y-140000000D02*
X66000000Y-140000000D01*
X66000000Y-140000000D02*
X62590000Y-143410000D01*
X62590000Y-143410000D02*
X62590000Y-143450000D01*
X174633750Y-145560000D02*
X169073750Y-140000000D01*
%TO.N,COL7*%
X187123750Y-139000000D02*
X188000000Y-139876250D01*
X64500000Y-139000000D02*
X187123750Y-139000000D01*
X188000000Y-139876250D02*
X193683750Y-145560000D01*
X62590000Y-140910000D02*
X64500000Y-139000000D01*
%TO.N,COL8*%
X62590000Y-138370000D02*
X205543750Y-138370000D01*
X205543750Y-138370000D02*
X212733750Y-145560000D01*
%TO.N,COL9*%
X66710000Y-131710000D02*
X66710000Y-124290000D01*
X66710000Y-124290000D02*
X69000000Y-122000000D01*
X69000000Y-122000000D02*
X222511250Y-122000000D01*
X222511250Y-122000000D02*
X227021250Y-126510000D01*
X62590000Y-135830000D02*
X66710000Y-131710000D01*
%TO.N,COL10*%
X240561250Y-121000000D02*
X246071250Y-126510000D01*
X68599990Y-121400010D02*
X69000000Y-121000000D01*
X69000000Y-121000000D02*
X240561250Y-121000000D01*
X62590000Y-133290000D02*
X66070010Y-129809990D01*
X66070010Y-123929990D02*
X68599990Y-121400010D01*
X66070010Y-127835689D02*
X66070010Y-123929990D01*
X66070010Y-129809990D02*
X66070010Y-127835689D01*
%TO.N,COL11*%
X65670000Y-127670000D02*
X65170000Y-128170000D01*
X68599990Y-120400010D02*
X65670000Y-123330000D01*
X65670000Y-123330000D02*
X65670000Y-127670000D01*
X265121250Y-126510000D02*
X259011260Y-120400010D01*
X65170000Y-128170000D02*
X62590000Y-130750000D01*
X259011260Y-120400010D02*
X68599990Y-120400010D01*
%TO.N,COL12*%
X286552500Y-164610000D02*
X296077500Y-164610000D01*
X284171250Y-126510000D02*
X277661250Y-120000000D01*
X65000000Y-125800000D02*
X62590000Y-128210000D01*
X65000000Y-123000000D02*
X65000000Y-125800000D01*
X277661250Y-120000000D02*
X68000000Y-120000000D01*
X68000000Y-120000000D02*
X65000000Y-123000000D01*
%TO.N,COL13*%
X293000000Y-121000000D02*
X291400010Y-119400010D01*
X67599990Y-119400010D02*
X64130000Y-122870000D01*
X291400010Y-119400010D02*
X67599990Y-119400010D01*
X303677974Y-121000000D02*
X293000000Y-121000000D01*
X308213901Y-125535927D02*
X303677974Y-121000000D01*
X308213901Y-126510000D02*
X308213901Y-125535927D01*
X64130000Y-122870000D02*
X64130000Y-124130000D01*
X64130000Y-124130000D02*
X62590000Y-125670000D01*
%TO.N,COL14*%
X313000000Y-120000000D02*
X313000000Y-120000000D01*
X292000000Y-119000000D02*
X66720000Y-119000000D01*
X310451099Y-120548901D02*
X293548901Y-120548901D01*
X64860000Y-120860000D02*
X62590000Y-123130000D01*
X311000000Y-120000000D02*
X310451099Y-120548901D01*
X313000000Y-120000000D02*
X311000000Y-120000000D01*
X66720000Y-119000000D02*
X64860000Y-120860000D01*
X293548901Y-120548901D02*
X292000000Y-119000000D01*
%TO.N,GND*%
X74900000Y-105850000D02*
X74850000Y-105850000D01*
X73494999Y-103494999D02*
X74900000Y-104900000D01*
X74900000Y-104900000D02*
X74900000Y-105850000D01*
X63505001Y-103494999D02*
X73494999Y-103494999D01*
X62538289Y-104461711D02*
X63505001Y-103494999D01*
X43601249Y-111638751D02*
X43601249Y-107795999D01*
X42270000Y-112970000D02*
X43601249Y-111638751D01*
X43601249Y-107795999D02*
X48397248Y-103000000D01*
X48397248Y-103000000D02*
X57434302Y-103000000D01*
X58896013Y-104461711D02*
X62538289Y-104461711D01*
X57434302Y-103000000D02*
X58896013Y-104461711D01*
%TO.N,Net-(MS1-Pad1)*%
X80249999Y-101299999D02*
X81100000Y-102150000D01*
X64823403Y-101299999D02*
X80249999Y-101299999D01*
X62061701Y-104061701D02*
X64823403Y-101299999D01*
X42270000Y-105350000D02*
X42993402Y-105350000D01*
X42993402Y-105350000D02*
X45745001Y-102598401D01*
X59061701Y-104061701D02*
X62061701Y-104061701D01*
X45745001Y-102598401D02*
X57598401Y-102598401D01*
X57598401Y-102598401D02*
X59061701Y-104061701D01*
%TD*%
M02*
