M48
; DRILL file {KiCad (5.1.6)-1} date 11/16/20 00:09:52
; FORMAT={-:-/ absolute / metric / decimal}
; #@! TF.CreationDate,2020-11-16T00:09:52-08:00
; #@! TF.GenerationSoftware,Kicad,Pcbnew,(5.1.6)-1
; #@! TF.FileFunction,Plated,1,2,PTH
FMAT,2
METRIC
T1C0.400
T2C0.998
T3C1.470
T4C2.499
%
G90
G05
T1
X313.0Y-120.0
T2
X42.27Y-105.35
X42.27Y-107.89
X42.27Y-110.43
X42.27Y-112.97
X42.27Y-115.51
X42.27Y-118.05
X42.27Y-120.59
X42.27Y-123.13
X42.27Y-125.67
X42.27Y-128.21
X42.27Y-130.75
X42.27Y-133.29
X42.27Y-135.83
X42.27Y-138.37
X42.27Y-140.91
X42.27Y-143.45
X62.59Y-115.51
X62.59Y-118.05
X62.59Y-120.59
X62.59Y-123.13
X62.59Y-125.67
X62.59Y-128.21
X62.59Y-130.75
X62.59Y-133.29
X62.59Y-135.83
X62.59Y-138.37
X62.59Y-140.91
X62.59Y-143.45
T3
X312.746Y-107.46
X319.096Y-104.92
X227.021Y-126.51
X233.371Y-123.97
X103.196Y-107.46
X109.546Y-104.92
X117.484Y-145.56
X123.834Y-143.02
X72.24Y-183.66
X78.59Y-181.12
X50.809Y-126.51
X57.159Y-123.97
X96.052Y-183.66
X102.402Y-181.12
X146.059Y-164.61
X152.409Y-162.07
X141.296Y-107.46
X147.646Y-104.92
X93.671Y-126.51
X100.021Y-123.97
X246.071Y-126.51
X252.421Y-123.97
X136.534Y-145.56
X142.884Y-143.02
X48.427Y-164.61
X54.777Y-162.07
X310.365Y-183.66
X316.715Y-181.12
X203.209Y-164.61
X209.559Y-162.07
X236.546Y-107.46
X242.896Y-104.92
X74.621Y-126.51
X80.971Y-123.97
X284.171Y-126.51
X290.521Y-123.97
X155.584Y-145.56
X161.934Y-143.02
X231.784Y-145.56
X238.134Y-143.02
X316.715Y-134.765
X319.255Y-141.115
X312.746Y-164.61
X319.096Y-162.07
X265.121Y-126.51
X271.471Y-123.97
X46.046Y-145.56
X52.396Y-143.02
X269.884Y-145.56
X276.234Y-143.02
X255.596Y-107.46
X261.946Y-104.92
X150.821Y-126.51
X157.171Y-123.97
X112.721Y-126.51
X119.071Y-123.97
X53.19Y-145.56
X59.54Y-143.02
X46.046Y-107.46
X52.396Y-104.92
X193.684Y-145.56
X200.034Y-143.02
X238.927Y-183.66
X245.277Y-181.12
X307.984Y-126.51
X314.334Y-123.97
X241.309Y-164.61
X247.659Y-162.07
X165.109Y-164.61
X171.459Y-162.07
X274.646Y-107.46
X280.996Y-104.92
X169.871Y-126.51
X176.221Y-123.97
X84.146Y-107.46
X90.496Y-104.92
X131.771Y-126.51
X138.121Y-123.97
X174.634Y-145.56
X180.984Y-143.02
X262.74Y-183.66
X269.09Y-181.12
X260.359Y-164.61
X266.709Y-162.07
X107.959Y-164.61
X114.309Y-162.07
X88.909Y-164.61
X95.259Y-162.07
X198.446Y-107.46
X204.796Y-104.92
X222.259Y-164.61
X228.609Y-162.07
X179.396Y-107.46
X185.746Y-104.92
X303.221Y-107.46
X309.571Y-104.92
X188.921Y-126.51
X195.271Y-123.97
X79.384Y-145.56
X85.734Y-143.02
X212.734Y-145.56
X219.084Y-143.02
X250.834Y-145.56
X257.184Y-143.02
X286.553Y-183.66
X292.902Y-181.12
X57.953Y-164.61
X64.302Y-162.07
X69.859Y-164.61
X76.209Y-162.07
X48.427Y-183.66
X54.777Y-181.12
X127.009Y-164.61
X133.359Y-162.07
X217.496Y-107.46
X223.846Y-104.92
X288.934Y-145.56
X295.284Y-143.02
X160.346Y-107.46
X166.696Y-104.92
X293.696Y-107.46
X300.046Y-104.92
X207.971Y-126.51
X214.321Y-123.97
X65.096Y-107.46
X71.446Y-104.92
X98.434Y-145.56
X104.784Y-143.02
X286.553Y-164.61
X292.902Y-162.07
X300.84Y-145.56
X307.19Y-143.02
X296.077Y-164.61
X302.428Y-162.07
X167.49Y-183.66
X173.84Y-181.12
X184.159Y-164.61
X190.509Y-162.07
X122.246Y-107.46
X128.596Y-104.92
T4
X43.54Y-101.54
X61.32Y-101.54
T0
M30
