M48
; DRILL file {KiCad (5.1.6)-1} date 11/16/20 00:09:52
; FORMAT={-:-/ absolute / metric / decimal}
; #@! TF.CreationDate,2020-11-16T00:09:52-08:00
; #@! TF.GenerationSoftware,Kicad,Pcbnew,(5.1.6)-1
; #@! TF.FileFunction,NonPlated,1,2,NPTH
FMAT,2
METRIC
T1C1.750
T2C3.048
T3C3.988
%
G90
G05
T1
X111.451Y-129.05
X121.611Y-129.05
X51.92Y-148.1
X62.08Y-148.1
X44.776Y-110.0
X54.936Y-110.0
X192.414Y-148.1
X202.574Y-148.1
X237.657Y-186.2
X247.817Y-186.2
X306.714Y-129.05
X316.874Y-129.05
X240.039Y-167.15
X250.199Y-167.15
X163.839Y-167.15
X173.999Y-167.15
X273.376Y-110.0
X283.536Y-110.0
X168.601Y-129.05
X178.761Y-129.05
X82.876Y-110.0
X93.036Y-110.0
X130.501Y-129.05
X140.661Y-129.05
X173.364Y-148.1
X183.524Y-148.1
X261.47Y-186.2
X271.63Y-186.2
X259.089Y-167.15
X269.249Y-167.15
X106.689Y-167.15
X116.849Y-167.15
X87.639Y-167.15
X97.799Y-167.15
X197.176Y-110.0
X207.336Y-110.0
X220.989Y-167.15
X231.149Y-167.15
X178.126Y-110.0
X188.286Y-110.0
X301.951Y-110.0
X312.111Y-110.0
X187.651Y-129.05
X197.811Y-129.05
X78.114Y-148.1
X88.274Y-148.1
X211.464Y-148.1
X221.624Y-148.1
X249.564Y-148.1
X259.724Y-148.1
X285.282Y-186.2
X295.442Y-186.2
X56.682Y-167.15
X66.843Y-167.15
X68.589Y-167.15
X78.749Y-167.15
X47.157Y-186.2
X57.317Y-186.2
X125.739Y-167.15
X135.899Y-167.15
X216.226Y-110.0
X226.386Y-110.0
X287.664Y-148.1
X297.824Y-148.1
X159.076Y-110.0
X169.236Y-110.0
X292.426Y-110.0
X302.586Y-110.0
X206.701Y-129.05
X216.861Y-129.05
X63.826Y-110.0
X73.986Y-110.0
X97.164Y-148.1
X107.324Y-148.1
X285.282Y-167.15
X295.442Y-167.15
X299.57Y-148.1
X309.73Y-148.1
X294.808Y-167.15
X304.967Y-167.15
X166.22Y-186.2
X176.38Y-186.2
X182.889Y-167.15
X193.049Y-167.15
X120.976Y-110.0
X131.136Y-110.0
X311.476Y-110.0
X321.636Y-110.0
X225.751Y-129.05
X235.911Y-129.05
X101.926Y-110.0
X112.086Y-110.0
X116.214Y-148.1
X126.374Y-148.1
X70.97Y-186.2
X81.13Y-186.2
X49.539Y-129.05
X59.699Y-129.05
X94.782Y-186.2
X104.942Y-186.2
X144.789Y-167.15
X154.949Y-167.15
X140.026Y-110.0
X150.186Y-110.0
X92.401Y-129.05
X102.561Y-129.05
X244.801Y-129.05
X254.961Y-129.05
X135.264Y-148.1
X145.424Y-148.1
X47.157Y-167.15
X57.317Y-167.15
X309.095Y-186.2
X319.255Y-186.2
X201.939Y-167.15
X212.099Y-167.15
X235.276Y-110.0
X245.436Y-110.0
X73.351Y-129.05
X83.511Y-129.05
X282.901Y-129.05
X293.061Y-129.05
X154.314Y-148.1
X164.474Y-148.1
X230.514Y-148.1
X240.674Y-148.1
X314.175Y-133.495
X314.175Y-143.655
X311.476Y-167.15
X321.636Y-167.15
X263.851Y-129.05
X274.011Y-129.05
X44.776Y-148.1
X54.936Y-148.1
X268.614Y-148.1
X278.774Y-148.1
X254.326Y-110.0
X264.486Y-110.0
X149.551Y-129.05
X159.711Y-129.05
T2
X295.125Y-103.015
X318.938Y-103.015
X292.744Y-141.115
X316.556Y-141.115
X287.981Y-160.165
X311.794Y-160.165
X121.3Y-193.185
X221.3Y-193.185
X321.16Y-126.637
X321.16Y-150.513
T3
X149.869Y-167.15
X145.106Y-110.0
X97.481Y-129.05
X249.881Y-129.05
X140.344Y-148.1
X52.237Y-167.15
X314.175Y-186.2
X207.019Y-167.15
X240.356Y-110.0
X78.431Y-129.05
X287.981Y-129.05
X159.394Y-148.1
X235.594Y-148.1
X305.92Y-126.637
X305.92Y-150.513
X314.175Y-138.575
X316.556Y-167.15
X268.931Y-129.05
X49.856Y-148.1
X273.694Y-148.1
X259.406Y-110.0
X154.631Y-129.05
X116.531Y-129.05
X57.0Y-148.1
X49.856Y-110.0
X197.494Y-148.1
X242.737Y-186.2
X311.794Y-129.05
X245.119Y-167.15
X168.919Y-167.15
X278.456Y-110.0
X173.681Y-129.05
X87.956Y-110.0
X135.581Y-129.05
X178.444Y-148.1
X266.55Y-186.2
X264.169Y-167.15
X111.769Y-167.15
X92.719Y-167.15
X202.256Y-110.0
X226.069Y-167.15
X183.206Y-110.0
X295.125Y-118.255
X307.031Y-110.0
X318.938Y-118.255
X192.731Y-129.05
X83.194Y-148.1
X216.544Y-148.1
X254.644Y-148.1
X290.363Y-186.2
X61.762Y-167.15
X73.669Y-167.15
X52.237Y-186.2
X130.819Y-167.15
X221.306Y-110.0
X292.744Y-148.1
X164.156Y-110.0
X297.506Y-110.0
X211.781Y-129.05
X68.906Y-110.0
X102.244Y-148.1
X290.363Y-167.15
X292.744Y-156.355
X304.65Y-148.1
X316.556Y-156.355
X287.981Y-175.405
X299.887Y-167.15
X311.794Y-175.405
X121.3Y-177.945
X171.3Y-186.2
X221.3Y-177.945
X187.969Y-167.15
X126.056Y-110.0
X316.556Y-110.0
X230.831Y-129.05
X107.006Y-110.0
X121.294Y-148.1
X76.05Y-186.2
X54.619Y-129.05
X99.862Y-186.2
T0
M30
