%TF.GenerationSoftware,KiCad,Pcbnew,(5.1.6)-1*%
%TF.CreationDate,2020-11-16T00:09:50-08:00*%
%TF.ProjectId,Wireless-Keyboard,57697265-6c65-4737-932d-4b6579626f61,rev?*%
%TF.SameCoordinates,Original*%
%TF.FileFunction,Paste,Bot*%
%TF.FilePolarity,Positive*%
%FSLAX46Y46*%
G04 Gerber Fmt 4.6, Leading zero omitted, Abs format (unit mm)*
G04 Created by KiCad (PCBNEW (5.1.6)-1) date 2020-11-16 00:09:50*
%MOMM*%
%LPD*%
G01*
G04 APERTURE LIST*
%ADD10R,1.800000X1.100000*%
%ADD11C,3.810000*%
%ADD12C,1.778000*%
%ADD13R,1.200000X0.900000*%
G04 APERTURE END LIST*
D10*
%TO.C,SW1*%
X81100000Y-105850000D03*
X74900000Y-102150000D03*
X81100000Y-102150000D03*
X74900000Y-105850000D03*
%TD*%
D11*
%TO.C,MS1*%
X43540000Y-101540000D03*
X61320000Y-101540000D03*
D12*
X62590000Y-115510000D03*
X62590000Y-118050000D03*
X62590000Y-120590000D03*
X62590000Y-123130000D03*
X62590000Y-125670000D03*
X62590000Y-128210000D03*
X62590000Y-130750000D03*
X62590000Y-133290000D03*
X62590000Y-135830000D03*
X62590000Y-138370000D03*
X62590000Y-140910000D03*
X62590000Y-143450000D03*
X42270000Y-143450000D03*
X42270000Y-140910000D03*
X42270000Y-138370000D03*
X42270000Y-135830000D03*
X42270000Y-133290000D03*
X42270000Y-130750000D03*
X42270000Y-128210000D03*
X42270000Y-125670000D03*
X42270000Y-123130000D03*
X42270000Y-120590000D03*
X42270000Y-118050000D03*
X42270000Y-115510000D03*
X42270000Y-112970000D03*
X42270000Y-110430000D03*
X42270000Y-107890000D03*
X42270000Y-105350000D03*
%TD*%
D13*
%TO.C,D65*%
X318000000Y-192350000D03*
X318000000Y-195650000D03*
%TD*%
%TO.C,D64*%
X295000000Y-192350000D03*
X295000000Y-195650000D03*
%TD*%
%TO.C,D63*%
X271000000Y-192350000D03*
X271000000Y-195650000D03*
%TD*%
%TO.C,D62*%
X247000000Y-192350000D03*
X247000000Y-195650000D03*
%TD*%
%TO.C,D61*%
X175062500Y-192350000D03*
X175062500Y-195650000D03*
%TD*%
%TO.C,D60*%
X103625000Y-192350000D03*
X103625000Y-195650000D03*
%TD*%
%TO.C,D59*%
X79812500Y-192350000D03*
X79812500Y-195650000D03*
%TD*%
%TO.C,D58*%
X56000000Y-192350000D03*
X56000000Y-195650000D03*
%TD*%
%TO.C,D57*%
X307000000Y-172350000D03*
X307000000Y-175650000D03*
%TD*%
%TO.C,D56*%
X303000000Y-172350000D03*
X303000000Y-175650000D03*
%TD*%
%TO.C,D55*%
X267500000Y-172350000D03*
X267500000Y-175650000D03*
%TD*%
%TO.C,D54*%
X248450000Y-172350000D03*
X248450000Y-175650000D03*
%TD*%
%TO.C,D53*%
X229400000Y-172350000D03*
X229400000Y-175650000D03*
%TD*%
%TO.C,D52*%
X210350000Y-172350000D03*
X210350000Y-175650000D03*
%TD*%
%TO.C,D51*%
X191300000Y-172350000D03*
X191300000Y-175650000D03*
%TD*%
%TO.C,D50*%
X172250000Y-172350000D03*
X172250000Y-175650000D03*
%TD*%
%TO.C,D49*%
X153200000Y-172350000D03*
X153200000Y-175650000D03*
%TD*%
%TO.C,D48*%
X134150000Y-172350000D03*
X134150000Y-175650000D03*
%TD*%
%TO.C,D47*%
X115100000Y-172350000D03*
X115100000Y-175650000D03*
%TD*%
%TO.C,D46*%
X96050000Y-172350000D03*
X96050000Y-175650000D03*
%TD*%
%TO.C,D45*%
X77000000Y-172350000D03*
X77000000Y-175650000D03*
%TD*%
%TO.C,D44*%
X65000000Y-172350000D03*
X65000000Y-175650000D03*
%TD*%
%TO.C,D43*%
X302000000Y-152350000D03*
X302000000Y-155650000D03*
%TD*%
%TO.C,D42*%
X298000000Y-152350000D03*
X298000000Y-155650000D03*
%TD*%
%TO.C,D41*%
X276500000Y-152350000D03*
X276500000Y-155650000D03*
%TD*%
%TO.C,D40*%
X257450000Y-152350000D03*
X257450000Y-155650000D03*
%TD*%
%TO.C,D39*%
X238400000Y-152350000D03*
X238400000Y-155650000D03*
%TD*%
%TO.C,D38*%
X219350000Y-152350000D03*
X219350000Y-155650000D03*
%TD*%
%TO.C,D37*%
X200300000Y-152350000D03*
X200300000Y-155650000D03*
%TD*%
%TO.C,D36*%
X181250000Y-152350000D03*
X181250000Y-155650000D03*
%TD*%
%TO.C,D35*%
X162200000Y-152350000D03*
X162200000Y-155650000D03*
%TD*%
%TO.C,D34*%
X143150000Y-152350000D03*
X143150000Y-155650000D03*
%TD*%
%TO.C,D33*%
X124100000Y-152350000D03*
X124100000Y-155650000D03*
%TD*%
%TO.C,D32*%
X105050000Y-152350000D03*
X105050000Y-155650000D03*
%TD*%
%TO.C,D31*%
X86000000Y-152350000D03*
X86000000Y-155650000D03*
%TD*%
%TO.C,D30*%
X60000000Y-152350000D03*
X60000000Y-155650000D03*
%TD*%
%TO.C,D29*%
X301000000Y-133400000D03*
X301000000Y-136700000D03*
%TD*%
%TO.C,D28*%
X291550000Y-133400000D03*
X291550000Y-136700000D03*
%TD*%
%TO.C,D27*%
X272500000Y-133400000D03*
X272500000Y-136700000D03*
%TD*%
%TO.C,D26*%
X253450000Y-133400000D03*
X253450000Y-136700000D03*
%TD*%
%TO.C,D25*%
X234400000Y-133400000D03*
X234400000Y-136700000D03*
%TD*%
%TO.C,D24*%
X215350000Y-133400000D03*
X215350000Y-136700000D03*
%TD*%
%TO.C,D23*%
X196300000Y-133400000D03*
X196300000Y-136700000D03*
%TD*%
%TO.C,D22*%
X177250000Y-133400000D03*
X177250000Y-136700000D03*
%TD*%
%TO.C,D21*%
X158200000Y-133400000D03*
X158200000Y-136700000D03*
%TD*%
%TO.C,D20*%
X139150000Y-133400000D03*
X139150000Y-136700000D03*
%TD*%
%TO.C,D19*%
X120100000Y-133400000D03*
X120100000Y-136700000D03*
%TD*%
%TO.C,D18*%
X101050000Y-133400000D03*
X101050000Y-136700000D03*
%TD*%
%TO.C,D17*%
X82000000Y-133400000D03*
X82000000Y-136700000D03*
%TD*%
%TO.C,D16*%
X58000000Y-133400000D03*
X58000000Y-136700000D03*
%TD*%
%TO.C,D15*%
X313000000Y-114350000D03*
X313000000Y-117650000D03*
%TD*%
%TO.C,D14*%
X300650000Y-114350000D03*
X300650000Y-117650000D03*
%TD*%
%TO.C,D13*%
X281600000Y-114350000D03*
X281600000Y-117650000D03*
%TD*%
%TO.C,D12*%
X262550000Y-114350000D03*
X262550000Y-117650000D03*
%TD*%
%TO.C,D11*%
X243500000Y-114350000D03*
X243500000Y-117650000D03*
%TD*%
%TO.C,D10*%
X224450000Y-114350000D03*
X224450000Y-117650000D03*
%TD*%
%TO.C,D9*%
X205400000Y-114350000D03*
X205400000Y-117650000D03*
%TD*%
%TO.C,D8*%
X186350000Y-114350000D03*
X186350000Y-117650000D03*
%TD*%
%TO.C,D7*%
X167300000Y-114350000D03*
X167300000Y-117650000D03*
%TD*%
%TO.C,D6*%
X148250000Y-114350000D03*
X148250000Y-117650000D03*
%TD*%
%TO.C,D5*%
X129200000Y-114350000D03*
X129200000Y-117650000D03*
%TD*%
%TO.C,D4*%
X110150000Y-114350000D03*
X110150000Y-117650000D03*
%TD*%
%TO.C,D3*%
X91100000Y-114350000D03*
X91100000Y-117650000D03*
%TD*%
%TO.C,D2*%
X72050000Y-114350000D03*
X72050000Y-117650000D03*
%TD*%
%TO.C,D1*%
X53000000Y-114350000D03*
X53000000Y-117650000D03*
%TD*%
M02*
